<?xml version="1.0" standalone="no"?>
<!DOCTYPE svg PUBLIC "-//W3C//DTD SVG 20010904//EN"
 "http://www.w3.org/TR/2001/REC-SVG-20010904/DTD/svg10.dtd">
<svg version="1.0" xmlns="http://www.w3.org/2000/svg"
 width="350.000000pt" height="350.000000pt" viewBox="0 0 350.000000 350.000000"
 preserveAspectRatio="xMidYMid meet">
<metadata>
Created by potrace 1.14, written by Peter Selinger 2001-2017
</metadata>
<g transform="translate(0.000000,350.000000) scale(0.100000,-0.100000)"
fill="#000000" stroke="none">
<path d="M0 3241 c0 -223 2 -262 16 -275 20 -21 26 -20 54 4 13 11 18 20 11
20 -7 0 -10 3 -8 8 4 5 53 7 76 3 2 -1 -2 -8 -9 -16 -10 -12 -15 -13 -20 -4
-4 6 -9 7 -12 3 -2 -5 5 -19 17 -32 l22 -22 -4 27 c-4 24 -2 26 9 13 7 -9 21
-14 32 -12 11 2 16 0 12 -7 -4 -6 -2 -11 3 -11 18 0 12 18 -11 34 l-22 16 21
0 c12 0 24 -6 27 -12 4 -7 4 -3 2 10 -2 12 -3 22 -1 22 14 0 55 -25 55 -33 0
-5 -6 -5 -13 2 -15 12 -27 5 -27 -17 0 -8 6 -12 15 -9 8 4 17 2 20 -3 4 -6 11
-10 16 -10 6 0 8 4 5 9 -3 4 10 7 28 4 22 -2 36 2 39 10 4 10 -3 13 -24 12
-16 -1 -27 0 -24 3 3 3 -3 15 -12 26 -18 21 -18 21 3 4 24 -21 38 -23 29 -5
-4 6 0 4 8 -5 8 -10 17 -15 21 -11 4 4 9 -3 13 -15 5 -22 14 -27 26 -15 4 3
-2 17 -14 29 -15 16 -17 24 -8 29 8 5 10 4 5 -3 -8 -13 -1 -15 62 -14 40 0 56
-11 29 -21 -6 -3 -2 -6 9 -6 23 -1 48 -24 37 -34 -3 -4 -1 -7 5 -7 11 0 16 13
13 32 -1 13 43 21 47 9 3 -8 8 -6 17 5 12 16 13 16 24 -3 9 -18 8 -20 -9 -16
-15 4 -20 0 -20 -16 0 -11 5 -21 10 -21 6 0 10 5 10 10 0 6 4 10 8 10 5 0 9
-7 9 -15 0 -8 -6 -15 -14 -15 -7 0 -13 -4 -13 -8 0 -12 44 -10 52 2 4 6 5 20
2 31 -4 17 -4 18 6 3 12 -20 -1 -62 -26 -76 -11 -6 -13 -11 -5 -16 6 -4 11 -3
11 3 0 10 19 9 38 -3 7 -4 12 -4 11 1 -4 21 2 33 17 33 8 0 12 5 9 10 -10 16
-21 12 -34 -12 -11 -22 -11 -21 -7 7 2 17 8 41 12 54 6 19 4 22 -7 16 -11 -6
-12 -5 -2 5 11 12 15 11 27 -5 11 -15 11 -22 3 -27 -7 -5 -3 -8 11 -8 16 0 21
-4 16 -12 -4 -7 -4 -10 1 -6 4 4 16 -2 26 -14 15 -16 16 -24 8 -35 -10 -11 -8
-12 6 -7 14 6 16 4 10 -7 -8 -12 -6 -12 8 0 23 18 23 -5 0 -31 -20 -22 -11
-24 11 -2 22 22 20 51 -5 57 -13 3 -19 12 -17 24 2 12 -2 17 -12 15 -8 -2 -12
-1 -8 3 4 4 -5 17 -19 29 -24 21 -25 24 -11 44 8 12 18 19 21 15 4 -3 -1 -11
-9 -18 -15 -10 -13 -14 11 -33 19 -15 35 -20 49 -16 12 4 27 7 34 7 6 0 12 8
12 17 0 10 8 24 17 31 11 10 14 10 9 2 -4 -8 -1 -13 9 -13 9 0 13 -5 10 -10
-4 -6 -10 -8 -15 -5 -5 3 -12 0 -16 -7 -4 -7 -4 -10 1 -6 11 11 36 -12 28 -25
-3 -6 -1 -7 6 -3 6 4 9 12 6 17 -4 5 -2 16 3 25 6 11 11 13 16 5 4 -6 3 -11
-3 -11 -7 0 -9 -17 -5 -44 4 -33 1 -45 -11 -49 -8 -4 -15 -11 -15 -17 0 -6 7
-4 16 5 13 12 19 13 24 4 5 -7 15 -9 26 -4 11 4 29 7 41 6 17 -2 21 2 17 13
-3 8 -12 17 -20 20 -20 8 -18 26 4 26 14 0 14 2 3 9 -8 5 -21 7 -29 3 -10 -3
-13 0 -10 9 3 8 -2 20 -11 27 -9 8 -10 10 -2 6 9 -4 20 2 31 16 13 17 19 20
25 10 5 -9 4 -11 -3 -6 -7 4 -12 1 -12 -9 0 -12 5 -15 17 -11 10 4 14 4 10 0
-4 -4 -2 -13 5 -21 9 -11 7 -12 -7 -7 -13 5 -16 4 -11 -5 5 -7 17 -11 27 -8
30 8 22 -2 -13 -16 -26 -11 -29 -14 -15 -20 9 -3 17 -2 17 3 0 6 8 10 18 10
16 -1 16 -1 0 -14 -20 -15 -24 -27 -7 -23 6 1 14 -5 16 -13 4 -13 3 -13 -6 0
-9 12 -11 11 -11 -7 0 -26 -10 -29 -29 -10 -11 10 -13 10 -7 0 9 -16 -10 -17
-20 -1 -5 8 -9 6 -14 -7 -8 -22 -39 -29 -58 -13 -10 9 -12 8 -10 -3 2 -9 -4
-13 -14 -11 -10 2 -18 -1 -18 -5 0 -5 9 -9 20 -10 11 -1 20 2 20 7 0 5 7 7 15
4 8 -4 15 -10 15 -15 0 -5 -7 -9 -15 -9 -8 0 -15 -4 -15 -8 0 -10 66 -9 76 1
5 4 1 5 -8 2 -9 -4 -19 -2 -22 3 -3 6 1 13 10 16 8 3 13 10 9 15 -3 6 4 9 15
8 12 -1 18 -7 16 -14 -3 -7 -2 -12 2 -12 24 4 42 -2 36 -13 -4 -7 -3 -8 4 -4
6 4 8 14 5 22 -3 9 0 20 8 25 12 7 12 9 0 9 -11 0 -10 4 3 19 10 11 23 18 29
17 7 -2 9 -1 4 1 -4 3 -5 9 -1 14 3 5 0 9 -5 9 -6 0 -11 -5 -11 -11 0 -5 -5
-7 -12 -3 -8 5 -5 11 10 17 22 10 31 37 11 37 -5 0 -7 -4 -4 -10 3 -5 1 -10
-4 -10 -22 0 -6 33 17 38 8 1 11 -2 7 -8 -3 -5 -2 -10 3 -10 5 0 7 -11 4 -25
-2 -15 0 -25 7 -25 6 0 11 6 11 13 0 7 5 4 11 -5 5 -10 9 -21 9 -24 -1 -4 4
-10 10 -14 9 -5 5 -10 -11 -15 -32 -10 -54 -45 -29 -45 5 0 9 3 7 8 -1 4 1 7
4 7 3 0 14 7 25 15 19 14 19 14 0 -8 -11 -12 -14 -22 -8 -22 7 0 12 -4 12 -8
0 -15 -55 -7 -72 11 -16 18 -17 18 -15 -2 1 -12 7 -21 14 -21 7 0 13 -6 13
-12 0 -9 4 -8 10 2 9 13 10 13 10 0 0 -13 1 -13 10 0 7 12 12 12 22 2 9 -9 9
-15 -1 -24 -11 -11 -12 -10 -6 1 5 9 4 12 -3 7 -16 -10 -15 -44 2 -61 7 -8 15
-12 17 -11 2 2 11 -3 19 -12 13 -14 12 -15 -3 -9 -17 7 -51 -29 -41 -45 3 -4
-5 -7 -18 -5 -16 1 -22 -3 -20 -14 1 -9 -4 -16 -12 -16 -16 0 -30 52 -19 71 3
6 3 8 -2 4 -4 -4 -20 -1 -36 8 -17 8 -29 10 -29 4 0 -5 7 -10 16 -10 13 0 14
-3 5 -13 -11 -14 -5 -27 13 -27 6 0 5 4 -3 9 -10 6 -10 10 -1 16 14 9 18 5 23
-25 2 -14 7 -32 11 -41 11 -26 -12 -96 -37 -114 -30 -21 -58 -20 -52 3 3 9 0
6 -7 -9 -7 -14 -25 -40 -40 -59 -26 -33 -28 -33 -46 -17 -21 19 -42 22 -42 6
0 -8 -6 -7 -17 2 -15 12 -16 12 -8 -1 5 -8 11 -23 12 -33 2 -14 -1 -17 -16
-12 -11 3 -22 2 -25 -3 -3 -5 8 -8 24 -7 36 2 36 1 9 -26 -20 -20 -66 -18 -53
2 3 6 -3 5 -15 -3 -12 -7 -21 -17 -21 -22 0 -6 5 -5 12 2 19 19 49 -4 44 -33
-3 -17 0 -25 9 -25 18 0 57 50 51 67 -7 18 13 28 27 13 9 -10 9 -11 0 -6 -8 4
-13 1 -13 -8 0 -22 -49 -76 -71 -76 -13 0 -17 -5 -12 -17 6 -15 4 -16 -9 -6
-8 7 -17 11 -20 8 -2 -3 -5 1 -5 9 0 8 6 12 15 8 9 -3 13 -1 9 5 -4 6 -4 13 0
16 11 5 -8 0 -32 -9 -18 -7 -19 -6 -5 11 14 18 14 18 -12 0 -15 -11 -26 -26
-23 -32 6 -17 -32 -37 -39 -20 -2 6 -2 -2 1 -19 3 -17 0 -41 -6 -53 -7 -11 -8
-21 -2 -21 11 0 21 25 21 56 0 29 20 32 27 4 3 -12 18 -27 34 -36 31 -16 32
-15 32 36 0 9 9 17 21 18 14 1 16 -2 8 -7 -7 -4 -10 -15 -7 -23 4 -9 1 -19 -4
-23 -6 -3 -9 -11 -6 -16 4 -5 0 -10 -7 -10 -27 -3 -53 3 -59 13 -5 7 -20 3
-43 -11 -40 -25 -46 -41 -17 -41 11 0 21 -6 24 -12 2 -7 7 2 11 20 l8 32 28
-27 c17 -15 26 -33 23 -42 -4 -11 0 -9 10 4 20 24 22 39 5 29 -10 -5 -10 -4
-1 6 7 8 19 15 26 16 17 2 15 -38 -2 -44 -9 -3 -9 -8 1 -20 9 -11 9 -14 1 -9
-7 5 -16 0 -22 -12 -10 -17 -9 -18 14 -7 14 6 25 19 25 29 0 9 5 17 11 17 5 0
8 4 4 9 -3 5 3 12 12 14 17 4 17 5 1 6 -10 0 -18 6 -18 12 0 7 10 9 28 5 23
-5 25 -4 11 6 -15 12 -19 19 -19 35 0 4 -6 -1 -13 -11 -12 -16 -14 -16 -14 -2
0 9 5 17 11 17 6 1 17 2 25 3 8 0 16 8 18 16 4 13 3 13 -7 0 -10 -13 -11 -13
-6 3 3 9 9 24 12 32 4 9 -1 17 -10 21 -9 3 -16 11 -16 17 0 5 9 2 19 -7 12
-11 21 -13 25 -7 4 6 13 8 21 5 10 -4 13 0 10 15 -2 12 0 19 6 16 5 -4 6 -11
3 -17 -5 -8 -1 -9 11 -5 14 6 16 3 12 -12 -3 -14 -1 -18 9 -14 8 3 14 9 14 13
0 4 9 10 21 13 13 4 19 10 14 19 -3 7 0 4 9 -6 8 -10 13 -23 9 -29 -3 -6 2
-16 12 -23 16 -12 16 -13 -3 -11 -11 0 -18 5 -15 11 4 5 -1 7 -12 2 -18 -7
-18 -6 0 14 23 26 15 25 -30 -2 -31 -17 -38 -19 -46 -7 -7 11 -9 11 -9 -3 0
-10 -6 -18 -12 -18 -10 0 -9 -3 1 -9 9 -6 10 -11 2 -15 -6 -4 -11 -2 -11 4 0
6 -5 8 -11 5 -6 -4 -8 -13 -5 -21 3 -9 -1 -14 -12 -15 -12 0 -10 -3 7 -10 24
-9 24 -9 -18 -47 l-43 -38 27 -12 c19 -9 31 -9 40 -2 6 5 15 7 19 3 14 -15 36
-11 36 7 0 14 -7 17 -35 14 -19 -1 -35 2 -35 7 0 6 5 7 10 4 6 -3 10 -1 10 5
0 6 5 8 11 5 6 -4 20 2 32 12 31 28 47 36 47 24 0 -6 -6 -11 -14 -11 -24 0
-38 -26 -22 -39 11 -10 15 -37 6 -48 -2 -2 -3 -8 -4 -13 -3 -23 -56 -41 -56
-19 0 6 7 9 15 6 8 -4 17 -1 21 6 4 7 3 8 -1 4 -5 -4 -15 3 -22 15 -12 21 -13
21 -11 3 2 -14 -3 -20 -15 -20 -10 0 -22 -7 -27 -15 -14 -22 -12 -30 5 -24 8
4 12 10 9 15 -3 5 -1 9 4 9 6 0 13 -7 16 -16 3 -8 2 -12 -4 -9 -12 8 -13 -5
-1 -23 7 -11 13 -9 30 9 11 12 21 17 21 10 0 -7 5 -9 13 -5 9 6 9 4 -1 -8 -9
-11 -10 -18 -2 -23 5 -3 10 -15 10 -26 0 -10 5 -19 12 -19 6 0 8 -3 4 -7 -4
-5 -13 -1 -19 7 -13 16 -47 23 -47 10 0 -11 26 -31 33 -25 4 3 5 2 2 -1 -2 -4
2 -16 10 -28 19 -27 19 -56 0 -56 -17 0 -20 17 -4 22 5 2 7 11 4 21 -4 9 -11
14 -16 11 -5 -3 -6 -11 -2 -17 5 -8 2 -8 -9 0 -15 13 -28 8 -28 -9 0 -5 5 -6
12 -2 7 5 8 3 3 -6 -6 -10 -11 -9 -21 5 -16 22 -15 23 17 28 13 2 22 8 19 13
-3 5 -9 8 -13 6 -5 -1 -6 2 -3 7 4 5 -6 9 -21 8 -16 -1 -28 3 -28 8 0 6 3 9 7
8 4 -2 5 4 1 12 -5 14 -7 13 -18 -1 -19 -27 -28 2 -9 31 10 16 12 25 5 25 -6
0 -14 -7 -18 -16 -5 -13 -7 -13 -14 -2 -7 10 -9 11 -9 0 0 -7 -4 -10 -10 -7
-5 3 -10 0 -10 -7 0 -9 -3 -9 -10 2 -8 13 -10 12 -10 -4 0 -14 6 -17 25 -14
17 4 25 1 25 -8 0 -8 6 -14 13 -14 9 0 8 -3 -2 -9 -9 -6 -10 -11 -2 -15 6 -4
11 -2 11 4 0 6 5 8 10 5 19 -12 -2 -27 -28 -20 -22 5 -24 4 -12 -10 11 -14 15
-14 36 0 13 8 29 15 36 15 10 0 10 -2 1 -8 -7 -4 -10 -16 -8 -27 2 -11 4 -25
4 -31 1 -14 33 -13 43 1 5 6 8 6 8 -1 0 -6 -7 -17 -15 -24 -8 -7 -12 -17 -8
-23 3 -6 1 -7 -5 -3 -7 4 -12 2 -12 -4 0 -6 -5 -8 -10 -5 -8 5 -8 11 0 20 8 9
8 15 0 20 -5 3 -10 1 -10 -5 0 -6 -4 -9 -9 -5 -5 3 -12 1 -16 -4 -3 -6 4 -15
15 -21 11 -6 18 -15 15 -21 -9 -13 9 -11 25 4 8 6 7 3 -3 -9 -22 -27 -22 -40
0 -23 10 8 4 -4 -13 -26 -17 -22 -37 -51 -43 -63 -7 -13 -15 -21 -18 -18 -3 3
0 14 8 23 13 16 12 17 -3 5 -9 -8 -22 -11 -28 -7 -6 3 -10 -3 -10 -17 0 -13
-4 -18 -8 -13 -4 6 -14 10 -22 10 -8 -1 -20 3 -27 7 -6 5 -14 5 -18 -2 -3 -5
-11 -10 -16 -10 -5 0 4 13 21 30 16 16 30 34 30 40 0 6 4 9 9 5 6 -3 14 2 19
11 6 10 12 13 16 6 3 -6 -3 -17 -14 -25 -11 -7 -17 -17 -13 -20 3 -4 1 -7 -5
-7 -7 0 -12 -5 -12 -12 0 -6 9 -3 20 7 11 10 20 14 21 9 0 -5 5 2 10 15 7 18
5 28 -7 42 -10 11 -22 19 -28 19 -7 0 -7 -3 1 -8 7 -4 9 -13 4 -20 -6 -10 -11
-10 -21 3 -10 12 -10 18 1 31 10 12 10 17 1 23 -9 5 -7 12 7 25 12 11 21 14
26 7 3 -6 2 -11 -2 -11 -5 0 -10 -10 -10 -22 -2 -18 0 -20 7 -8 5 8 10 11 10
6 0 -6 5 -5 11 1 13 13 39 6 39 -9 0 -5 -4 -7 -9 -4 -5 3 -14 0 -20 -8 -9 -10
-7 -17 6 -27 16 -13 17 -12 4 4 -11 15 -11 17 2 17 19 0 29 -24 14 -39 -8 -8
-8 -11 2 -11 7 0 9 -5 5 -12 -5 -7 -3 -8 5 -4 7 5 10 10 7 13 -3 3 -1 14 4 24
8 13 6 20 -7 28 -14 8 -15 11 -3 11 11 0 9 6 -7 19 -12 10 -19 22 -15 27 4 5
-4 0 -17 -11 -20 -17 -23 -17 -18 -3 3 9 0 22 -8 28 -11 9 -18 7 -32 -10 -10
-11 -16 -23 -15 -27 2 -3 -2 -9 -9 -13 -7 -5 -9 -15 -4 -26 16 -38 16 -54 -2
-47 -9 4 -14 2 -10 -3 3 -6 1 -16 -5 -24 -8 -13 -9 -12 -5 2 7 19 -24 30 -44
16 -11 -7 -9 -8 5 -6 12 2 20 -4 21 -14 4 -21 -6 -23 -23 -6 -9 9 -16 8 -30
-5 -20 -19 -37 -23 -27 -7 4 6 -3 9 -16 7 -13 -2 -25 -10 -27 -18 -3 -12 -2
-12 6 0 7 9 12 10 16 2 6 -10 -6 -15 -26 -12 -5 0 -8 -4 -8 -10 0 -5 -5 -7
-11 -3 -8 4 -8 9 0 17 6 6 11 16 11 21 0 6 -7 0 -16 -12 -8 -12 -25 -22 -37
-21 -12 0 -16 3 -9 6 6 2 10 9 6 14 -3 5 0 9 5 9 6 0 11 -6 12 -12 1 -7 4 -2
8 12 5 14 14 24 22 22 10 -3 9 2 -4 16 -18 20 -12 38 8 22 9 -7 16 -6 24 4 10
12 8 13 -9 9 -14 -4 -20 -1 -18 7 4 18 -17 23 -33 8 -8 -7 -26 -13 -41 -13
-15 1 -24 -3 -21 -8 2 -4 12 -7 21 -6 21 3 52 -10 52 -21 0 -5 -9 -7 -20 -5
-11 2 -23 -1 -26 -7 -4 -7 -2 -8 4 -4 7 4 12 2 12 -3 0 -12 -49 -9 -69 4 -9 5
-12 4 -7 -3 3 -5 3 -12 -1 -15 -5 -2 -2 -2 5 0 8 1 12 -3 9 -9 -2 -7 -12 -12
-21 -11 -11 0 -15 -4 -12 -12 2 -7 -2 -16 -10 -19 -9 -3 -13 -10 -10 -15 4 -5
3 -11 -1 -14 -5 -2 -2 -2 5 -1 16 4 16 -13 0 -19 -7 -3 -8 -6 -3 -6 6 0 17 4
25 9 13 8 12 11 -5 25 -20 16 -20 17 0 10 11 -3 16 -3 13 1 -4 3 -1 13 7 20
15 16 29 19 21 5 -4 -5 2 -7 13 -4 10 3 22 -1 26 -8 5 -8 4 -10 -3 -5 -13 8
-16 -6 -5 -18 12 -12 15 -58 3 -51 -6 3 -8 11 -5 16 4 5 2 9 -3 9 -6 0 -13 -7
-16 -16 -3 -8 -2 -12 4 -9 6 3 13 0 16 -9 3 -8 11 -12 19 -10 9 4 10 15 5 40
-6 27 -5 34 7 34 8 0 11 5 8 10 -3 6 -1 10 4 10 6 0 11 -5 11 -11 0 -6 7 -8
16 -5 12 4 15 2 10 -9 -3 -8 -3 -15 0 -15 2 0 9 10 14 23 6 15 9 17 9 6 1 -9
-6 -22 -14 -29 -17 -14 -21 -60 -5 -60 6 0 10 -4 10 -10 0 -5 -7 -10 -15 -10
-8 0 -15 -3 -16 -7 0 -5 -2 -16 -4 -25 -2 -11 2 -15 11 -11 8 3 14 -1 14 -11
0 -14 -3 -15 -22 -4 -13 7 -29 11 -35 10 -7 -2 -13 4 -13 11 0 21 -21 26 -50
10 -22 -11 -20 -18 4 -14 5 1 4 -4 -2 -12 -10 -11 -4 -13 32 -10 44 4 45 4 41
-25 -3 -27 -2 -28 33 -26 20 2 54 5 74 6 23 2 43 11 53 23 15 18 15 17 0 -13
-9 -19 -20 -30 -27 -26 -7 4 -8 3 -4 -5 10 -15 20 -8 43 32 15 25 17 37 9 49
-13 21 -3 33 21 24 15 -6 15 -8 3 -16 -9 -6 -10 -10 -3 -10 13 0 28 19 28 35
0 6 9 10 20 10 11 0 34 8 52 18 39 21 54 21 79 2 14 -11 15 -14 3 -9 -30 10
-29 -13 1 -26 16 -7 31 -10 34 -9 2 2 13 -4 24 -14 15 -14 21 -15 26 -5 3 7 3
3 0 -9 -4 -19 -2 -22 13 -16 12 4 15 3 8 -5 -5 -6 -26 -15 -45 -21 -32 -10
-30 -10 20 -5 31 3 60 11 66 19 6 8 19 15 28 15 11 0 15 4 10 13 -6 9 -4 9 8
-1 11 -9 18 -10 23 -2 3 6 10 8 15 5 5 -3 15 1 23 9 8 8 17 13 20 10 3 -3 14
-1 26 5 13 7 22 8 26 1 3 -5 16 -10 28 -9 20 1 20 2 -3 9 -25 8 -25 8 -2 9 14
1 21 5 16 12 -4 8 0 8 15 0 11 -7 21 -9 21 -6 0 4 7 -1 16 -9 17 -18 39 -22
29 -6 -9 14 8 12 25 -2 12 -11 12 -10 2 4 -14 18 0 34 18 23 6 -4 9 -2 8 3 -2
5 12 22 31 37 l34 29 18 -23 c14 -17 19 -39 19 -81 0 -50 4 -61 30 -89 17 -17
35 -31 41 -31 7 0 9 -10 7 -25 -3 -15 -1 -22 5 -18 6 4 8 -2 5 -15 -3 -12 0
-29 8 -39 7 -10 14 -25 14 -33 0 -8 7 -28 15 -44 9 -16 20 -46 25 -65 5 -20
15 -58 23 -85 13 -48 14 -48 20 -20 3 17 0 38 -8 51 -27 41 -38 108 -25 148
10 29 15 34 26 24 7 -6 16 -27 20 -48 4 -20 10 -43 15 -51 5 -9 6 -3 3 16 -4
19 -1 34 5 38 6 4 11 2 11 -3 0 -15 70 -42 100 -39 22 3 20 5 -16 17 -48 16
-105 60 -87 67 7 3 10 11 7 19 -3 7 -1 16 5 20 6 3 11 -1 11 -9 0 -8 4 -17 9
-20 5 -4 7 7 5 24 -3 16 0 39 6 51 7 12 8 19 2 15 -6 -3 -12 -3 -15 1 -2 5 -2
3 -1 -4 2 -7 -6 -22 -17 -35 l-20 -23 7 25 c3 14 13 36 21 49 l16 24 17 -23
c10 -13 25 -36 34 -52 16 -26 16 -28 -1 -29 -10 -1 -22 0 -28 1 -5 1 -6 -2 -2
-7 5 -4 12 -8 15 -8 4 0 13 -4 21 -9 10 -6 12 -5 7 3 -4 6 0 14 10 18 11 4 20
1 22 -6 3 -8 22 -30 44 -51 26 -24 38 -42 33 -50 -6 -9 -4 -11 5 -5 8 5 21 -3
37 -21 l25 -29 -39 -5 -38 -5 41 -13 c23 -6 46 -12 53 -12 15 0 77 60 73 71
-3 14 14 10 27 -5 10 -12 8 -19 -8 -35 -28 -28 -14 -27 16 1 l23 21 68 -34 69
-34 -8 28 c-4 15 -4 27 2 27 5 0 9 -7 9 -15 0 -9 9 -25 20 -37 10 -12 17 -26
13 -32 -4 -8 -2 -8 6 0 10 9 6 26 -18 78 -16 36 -26 68 -21 71 4 3 11 -5 15
-18 7 -22 7 -22 14 3 4 17 13 25 28 26 13 0 23 -3 23 -8 0 -5 5 -6 10 -3 6 4
8 11 5 16 -4 5 -1 9 4 9 6 0 11 -5 11 -11 0 -8 4 -9 13 0 8 6 17 8 20 4 4 -3
7 2 7 11 0 14 -7 17 -34 13 -19 -2 -39 -8 -45 -11 -7 -5 -11 10 -12 46 l-2 53
-10 -53 c-10 -53 -20 -65 -31 -36 -3 8 -2 13 2 10 8 -5 4 59 -5 84 -3 8 -8 33
-10 55 -6 51 -18 64 -40 42 -14 -14 -15 -23 -7 -45 6 -15 7 -38 3 -52 -7 -27
-8 -26 -14 4 -11 59 -8 84 13 111 12 15 22 33 21 39 0 6 -5 1 -11 -11 -16 -33
-34 -35 -33 -4 0 14 3 28 6 31 7 5 14 41 24 125 5 48 5 49 -9 25 l-15 -25 -2
25 c-1 16 -3 19 -6 8 -2 -9 1 -26 6 -37 7 -13 8 -22 1 -26 -5 -3 -10 -11 -10
-16 0 -6 5 -7 10 -4 6 3 10 1 10 -4 0 -6 -7 -11 -15 -11 -9 0 -15 -10 -15 -26
0 -17 -4 -23 -12 -18 -7 4 -6 -1 3 -10 14 -15 14 -25 2 -89 -16 -82 -25 -192
-14 -163 7 19 8 19 13 -2 4 -12 2 -20 -3 -16 -5 3 -9 0 -9 -6 0 -6 -5 -8 -11
-5 -14 9 -5 173 12 220 10 27 10 38 1 47 -9 9 -13 5 -18 -20 -4 -17 -10 -29
-15 -27 -4 3 4 31 18 63 29 65 46 170 30 190 -7 9 -6 11 6 6 20 -7 44 44 51
106 5 45 5 45 -10 18 -16 -30 -30 -38 -20 -12 3 8 2 12 -4 9 -6 -3 -10 -14
-10 -24 0 -24 -11 -33 -25 -21 -8 7 -11 1 -10 -23 1 -31 -1 -32 -21 -23 -12 6
-20 14 -17 19 2 4 -1 15 -9 24 -7 10 -8 14 -1 10 6 -4 13 -4 16 0 2 5 2 2 0
-5 -1 -7 1 -11 6 -8 5 3 8 16 8 29 0 13 13 43 28 68 l27 44 -35 -35 c-20 -19
-37 -43 -37 -53 0 -10 -4 -15 -10 -12 -5 3 -17 -10 -27 -29 -18 -38 -43 -55
-43 -30 0 8 5 12 10 9 6 -4 17 9 25 28 8 19 20 41 28 49 35 35 90 101 75 89
-16 -12 -18 -11 -18 2 0 9 6 20 14 24 12 7 12 10 1 20 -11 10 -15 6 -20 -19
-4 -17 -23 -51 -42 -77 -43 -56 -49 -62 -34 -34 6 12 8 30 5 40 -4 13 -3 14 3
5 8 -11 12 -11 20 0 18 22 45 80 40 84 -8 9 -47 -48 -40 -59 3 -5 1 -7 -4 -4
-6 4 -8 19 -5 34 2 16 1 25 -3 21 -5 -4 -9 -19 -9 -32 -1 -13 -7 -30 -13 -37
-19 -25 -51 -107 -45 -115 4 -4 0 -3 -8 1 -12 7 -13 6 -3 -6 9 -11 6 -21 -15
-49 -15 -19 -34 -36 -41 -38 -11 -2 -12 0 -3 11 7 8 8 18 4 22 -4 5 -1 4 7 0
11 -6 13 -4 7 10 -5 14 -4 15 7 7 10 -8 12 -5 11 16 -1 15 1 32 5 37 3 6 7 19
9 30 1 11 18 51 37 88 39 76 40 81 23 72 -7 -4 -5 0 5 8 9 8 17 18 17 23 0 5
7 22 15 37 11 22 12 34 4 49 -6 11 -7 18 -1 15 9 -6 50 120 58 183 16 119 35
98 36 -39 0 -121 10 -127 14 -9 2 68 -1 90 -20 133 -20 42 -56 90 -56 73 0 -7
-66 49 -111 94 -23 23 -39 33 -42 25 -2 -7 -4 1 -4 16 0 15 -9 37 -19 49 -12
14 -14 18 -4 13 13 -8 13 -7 1 8 -8 10 -16 39 -17 65 -6 70 -13 94 -26 86 -8
-5 -9 -2 -5 9 4 10 2 17 -4 17 -7 0 -9 -9 -5 -22 4 -13 9 -34 12 -47 3 -13 10
-33 15 -43 6 -11 9 -21 7 -23 -2 -3 -12 11 -23 30 -21 40 -35 45 -36 13 0 -23
0 -23 -9 -2 -5 12 -23 27 -41 33 -47 16 -135 25 -156 16 -18 -8 -27 -11 -40
-14 -3 0 1 -9 10 -19 13 -14 14 -21 5 -30 -7 -7 -16 -12 -22 -12 -5 0 -26 -19
-47 -42 l-37 -42 22 -21 c36 -32 86 -57 102 -51 7 3 14 1 14 -4 0 -6 7 -10 15
-10 8 0 15 4 15 10 0 5 13 7 30 5 16 -2 32 0 35 5 6 9 40 5 80 -10 22 -8 27
-7 34 13 8 21 9 20 19 -13 6 -19 11 -27 11 -17 1 18 21 24 21 6 0 -6 8 -23 19
-37 26 -38 32 -92 12 -122 -9 -13 -11 -21 -4 -17 7 4 20 -6 34 -25 l23 -33
-23 19 c-19 17 -63 34 -47 19 3 -3 1 -14 -5 -24 -7 -15 -6 -17 5 -13 38 15
-33 -152 -86 -202 -18 -17 -51 -38 -74 -47 -37 -14 -147 -33 -234 -40 -32 -2
-29 -4 25 -16 68 -16 105 -40 82 -53 -9 -4 -12 -17 -10 -32 4 -18 0 -25 -14
-29 -14 -4 -15 -5 -1 -6 12 -1 16 -11 16 -38 0 -21 5 -39 11 -41 9 -3 9 -8 0
-18 -8 -10 -8 -14 0 -14 18 0 13 -30 -8 -48 -26 -23 -61 -87 -61 -115 -1 -20
-3 -19 -30 13 -27 31 -30 41 -30 108 0 40 -5 82 -10 92 -9 16 -8 18 7 13 13
-5 15 -3 9 13 -4 10 -10 33 -13 49 -3 17 -9 35 -13 40 -3 6 -7 25 -8 44 -2 19
-4 37 -7 41 -2 3 -32 7 -67 7 -73 1 -130 21 -151 55 -41 63 -84 348 -67 439 9
47 35 109 46 109 3 0 2 -6 -2 -12 -6 -10 -5 -10 7 -1 9 7 25 11 37 8 12 -2 24
0 27 5 3 5 -3 7 -15 5 -11 -2 -22 0 -25 6 -4 5 11 9 34 9 22 0 43 -4 46 -10 3
-5 16 -11 28 -11 19 -1 19 -2 3 -6 -15 -4 -16 -7 -5 -13 11 -7 9 -15 -9 -39
-27 -37 -27 -41 -2 -34 11 3 20 10 20 15 0 5 11 21 25 36 14 15 25 34 25 42 0
8 7 28 15 44 15 28 11 81 -6 70 -5 -3 -9 0 -9 6 0 6 -4 9 -9 5 -12 -7 -33 29
-23 40 4 5 2 5 -5 1 -7 -4 -10 -13 -7 -21 5 -12 1 -12 -20 -2 -26 12 -37 33
-12 24 7 -3 19 0 25 6 9 9 17 6 31 -13 18 -23 20 -24 20 -4 0 11 -11 35 -25
54 -28 37 -26 57 8 94 12 13 30 35 40 49 22 33 81 74 183 127 48 26 80 37 82
30 3 -8 8 -8 18 1 11 9 14 8 15 -7 0 -18 1 -18 9 1 8 18 9 17 9 -7 1 -16 5
-28 10 -28 5 0 19 -15 31 -32 l21 -33 -6 35 c-6 33 -5 34 10 16 8 -11 15 -28
15 -37 0 -10 4 -20 9 -23 4 -3 6 6 3 21 -3 15 -1 23 4 20 6 -3 10 3 10 13 0
10 -4 16 -8 14 -4 -3 -8 1 -9 8 0 7 -2 24 -5 37 -3 19 -2 21 9 12 8 -6 18 -7
23 -3 5 4 6 3 2 -1 -8 -11 23 -48 34 -41 4 3 8 -1 8 -8 0 -7 7 -2 16 10 8 12
20 19 26 16 8 -5 9 -1 5 12 -7 18 -6 18 9 -1 15 -19 15 -19 9 10 l-6 30 16
-27 c9 -16 17 -28 20 -28 2 0 0 12 -5 28 -4 15 -9 34 -11 42 -2 8 -11 21 -19
28 -13 11 -12 12 6 3 11 -5 29 -28 39 -50 22 -50 32 -47 11 3 -19 45 -12 47
10 4 20 -38 43 -58 61 -51 13 5 37 -40 72 -137 11 -31 20 -46 20 -33 1 22 -5
40 -41 121 -37 84 -57 147 -56 170 l2 23 17 -22 c17 -23 42 -18 32 6 -3 8 0
15 6 15 6 0 10 -3 10 -7 -3 -20 2 -24 16 -13 8 7 12 16 9 21 -3 5 2 6 10 3 9
-3 16 -14 16 -23 0 -14 -2 -14 -10 -1 -5 8 -10 11 -10 5 0 -5 8 -20 18 -32
l17 -23 -1 30 c0 16 -6 35 -12 42 -6 8 -7 19 -3 27 6 9 14 -1 26 -33 11 -27
22 -43 29 -39 6 3 1 -4 -10 -17 -21 -21 -21 -25 -8 -64 8 -22 24 -52 34 -66
l20 -25 -9 27 c-7 20 -6 29 4 38 11 9 17 5 30 -19 8 -17 18 -31 21 -31 3 0 2
5 -2 12 -4 7 -3 8 4 4 7 -4 12 -14 12 -22 0 -8 -5 -12 -11 -9 -5 4 -3 -9 5
-28 8 -20 12 -38 8 -41 -3 -3 -1 -6 4 -6 10 0 40 -69 36 -83 -1 -5 3 -5 9 -2
6 4 8 16 5 28 -3 14 -2 17 6 9 6 -6 7 -20 3 -33 -8 -25 -5 -36 8 -31 5 1 6 -2
2 -8 -3 -5 -3 -15 1 -21 4 -8 9 -7 15 2 7 11 9 9 10 -6 l0 -20 9 20 c15 34 10
79 -10 105 -11 14 -20 34 -20 45 0 22 -95 145 -111 145 -6 0 -8 9 -4 23 7 22
7 22 -10 2 -9 -11 -14 -14 -10 -7 9 17 -5 15 -29 -5 -21 -18 -21 -18 -3 3 9
11 15 23 12 25 -2 3 5 6 17 6 26 2 30 7 22 27 -4 9 -12 15 -19 13 -6 -3 -12 1
-12 8 0 10 5 11 18 5 26 -14 31 12 5 28 -20 13 -20 13 3 6 16 -4 21 -3 17 5
-4 6 -3 18 2 28 6 9 6 29 2 45 -6 19 -5 28 3 28 7 0 0 8 -16 18 -15 10 -24 23
-20 27 5 5 1 4 -7 -2 -8 -6 -23 -9 -33 -7 -17 2 -17 1 -3 -15 9 -10 13 -21 9
-25 -4 -4 1 -4 11 0 14 5 17 4 12 -4 -4 -7 -1 -15 8 -18 20 -8 28 -32 13 -40
-7 -4 -9 -4 -5 1 11 11 -12 36 -25 28 -6 -3 -7 -1 -3 5 7 11 -6 17 -27 13 -5
-1 -6 3 -2 9 8 13 -1 13 -27 -1 -15 -8 -19 -8 -14 0 4 6 2 11 -4 11 -6 0 -8 5
-4 11 5 8 9 8 14 -1 5 -8 9 -7 13 5 4 10 3 14 -4 10 -6 -4 -13 3 -16 15 -3 11
-11 19 -17 17 -45 -19 -46 -19 -46 3 0 11 5 18 10 15 5 -3 10 -1 10 4 0 10
-22 16 -43 12 -5 -1 -6 3 -2 9 6 10 -3 21 -39 50 -18 14 -19 13 -13 -2 4 -12
2 -18 -8 -18 -19 0 -19 14 -2 29 10 8 16 8 25 -1 6 -6 22 -8 35 -4 27 6 42 42
21 50 -7 3 -11 14 -9 26 2 11 0 20 -6 20 -5 0 -9 -4 -9 -10 0 -5 -5 -10 -11
-10 -5 0 -7 6 -3 13 5 8 2 7 -9 -2 -10 -8 -20 -11 -24 -7 -3 3 -1 6 5 6 7 0
11 6 10 13 -2 7 5 11 17 9 33 -5 47 -11 41 -20 -3 -5 1 -9 9 -9 19 0 19 0 -2
23 -22 24 -60 25 -77 2 -17 -24 -25 -23 -19 2 6 22 -7 26 -25 8 -9 -9 -12 -9
-12 0 0 13 -39 10 -61 -4 -8 -4 -9 -3 -5 5 6 9 -125 11 -551 11 -307 -1 -564
-4 -570 -8 -7 -4 -17 -19 -23 -32 -10 -24 -10 -24 -6 5 4 25 1 31 -14 32 -10
1 -20 -7 -23 -18 -3 -10 -1 -19 3 -19 5 0 11 8 13 18 3 11 5 7 6 -10 1 -25
-17 -33 -35 -15 -4 4 -13 2 -20 -4 -19 -16 -37 0 -31 27 3 20 0 24 -19 24 -20
0 -24 -5 -25 -32 l-2 -33 -7 35 -7 35 -7 -30 c-6 -23 -14 -31 -32 -33 -26 -2
-30 8 -14 39 10 17 7 19 -34 19 -31 0 -46 -5 -50 -16 -10 -25 -7 -32 12 -29 9
2 19 4 22 4 3 1 -2 5 -10 11 -8 5 -11 12 -8 16 4 3 14 0 22 -8 19 -20 2 -38
-36 -38 -25 0 -27 2 -18 24 5 13 6 27 3 30 -4 3 -127 6 -275 6 l-268 0 0 -259z
m282 205 c7 4 8 2 4 -5 -4 -6 -11 -9 -16 -6 -4 3 -11 -6 -14 -20 -7 -27 -23
-34 -23 -10 0 8 4 12 9 9 5 -4 8 0 7 7 -2 8 1 28 6 44 l9 30 4 -28 c2 -16 8
-25 14 -21z m18 23 c0 -6 -4 -7 -10 -4 -5 3 -10 11 -10 16 0 6 5 7 10 4 6 -3
10 -11 10 -16z m52 -3 c-5 -17 -3 -19 9 -9 8 6 19 13 24 15 6 1 9 6 8 11 -2 4
4 7 12 7 13 0 13 -3 -1 -26 -13 -18 -19 -22 -25 -12 -6 9 -9 8 -15 -5 -10 -26
-24 -20 -24 11 l0 27 -19 -24 -19 -25 5 25 c3 18 11 25 27 25 18 0 22 -4 18
-20z m137 -3 l-1 -28 -8 25 -7 25 -11 -25 c-10 -23 -11 -23 -11 -4 -1 24 7 34
26 34 8 0 13 -11 12 -27z m32 8 c-6 -10 -7 -21 -4 -25 3 -3 1 -6 -5 -6 -16 0
-15 23 0 38 17 17 20 15 9 -7z m394 9 c3 -5 11 -10 16 -10 6 0 7 5 3 12 -4 7
-3 8 5 4 9 -6 9 -11 0 -23 -11 -12 -14 -12 -22 3 -10 17 -11 17 -18 -1 -7 -19
-8 -18 -8 3 -1 23 13 30 24 12z m1140 -1 c-5 10 -4 12 3 7 7 -4 12 -14 12 -22
0 -8 -4 -13 -9 -9 -5 3 -13 0 -17 -6 -4 -8 -3 -9 4 -5 7 4 12 2 12 -3 0 -6 -7
-11 -15 -11 -10 0 -15 10 -15 31 0 28 2 30 17 18 14 -12 16 -12 8 0z m41 -4
c-3 -8 3 -19 13 -25 23 -12 35 -50 16 -50 -7 0 -12 8 -11 18 1 12 -6 17 -21
16 -13 -1 -23 3 -23 7 0 5 5 9 10 9 6 0 9 3 9 8 -3 15 1 32 7 32 3 0 4 -7 0
-15z m-83 -13 c-10 -6 -7 -17 12 -42 25 -34 29 -52 10 -51 -6 1 -10 10 -10 21
0 11 -4 20 -10 19 -9 0 -23 26 -24 49 -1 6 7 12 17 12 12 0 13 -3 5 -8z
m-1583 -6 c0 -2 -8 -10 -17 -17 -16 -13 -17 -12 -4 4 13 16 21 21 21 13z
m1735 -26 c3 -5 2 -10 -4 -10 -5 0 -13 5 -16 10 -3 6 -2 10 4 10 5 0 13 -4 16
-10z m-65 -28 c0 -14 -2 -15 -10 -2 -5 8 -12 11 -16 7 -4 -3 -1 -13 6 -21 6
-9 10 -21 7 -28 -3 -8 -6 -5 -6 6 -1 20 -1 20 -17 0 -15 -18 -15 -18 -5 2 6
12 8 24 4 27 -8 9 18 38 28 31 5 -3 9 -13 9 -22z m-365 -22 c-3 -5 -12 -10
-18 -10 -7 0 -6 4 3 10 19 12 23 12 15 0z m297 -35 c2 3 5 -2 5 -10 0 -19 -14
-10 -27 18 -10 20 -10 20 3 5 8 -10 16 -16 19 -13z m-592 11 c0 -2 -7 -7 -16
-10 -8 -3 -12 -2 -9 4 6 10 25 14 25 6z m-770 -10 c0 -2 -7 -6 -15 -10 -8 -3
-15 -1 -15 4 0 6 7 10 15 10 8 0 15 -2 15 -4z m353 -3 c-7 -2 -19 -2 -25 0 -7
3 -2 5 12 5 14 0 19 -2 13 -5z m647 -18 c-7 -8 -16 -15 -21 -15 -5 0 -1 8 9
18 20 22 31 19 12 -3z m-1324 -20 c-15 -15 -16 -15 -16 3 0 24 11 35 23 23 6
-6 4 -16 -7 -26z m794 25 c0 -5 -5 -10 -11 -10 -5 0 -7 5 -4 10 3 6 8 10 11
10 2 0 4 -4 4 -10z m997 4 c-3 -3 -12 -4 -19 -1 -8 3 -5 6 6 6 11 1 17 -2 13
-5z m-12 -54 c-9 -16 -20 -30 -25 -30 -6 0 -10 -9 -10 -20 0 -21 -15 -27 -25
-10 -3 5 3 18 14 29 11 11 16 23 13 27 -4 4 -2 4 5 0 7 -4 17 2 23 14 6 11 13
20 16 20 2 0 -2 -13 -11 -30z m-1820 10 c-3 -5 -12 -10 -18 -10 -7 0 -6 4 3
10 19 12 23 12 15 0z m1871 -78 c-2 -2 -13 1 -24 7 -11 6 -22 7 -26 4 -3 -3
-6 0 -6 9 0 25 11 27 36 5 13 -11 22 -22 20 -25z m10 31 c-4 -10 0 -10 17 1
14 9 29 11 42 6 19 -7 19 -8 -5 -18 -14 -5 -28 -8 -32 -5 -12 6 -9 -15 2 -22
6 -3 10 -1 10 4 0 6 5 11 11 11 8 0 8 -5 -1 -15 -17 -21 -21 -19 -52 19 -26
32 -26 35 -8 33 12 -1 18 -7 16 -14z m180 -14 c8 -14 -10 -11 -32 6 -18 13
-18 14 4 8 12 -3 25 -9 28 -14z m-236 -80 c-5 -15 -5 -31 -2 -35 4 -4 1 -4 -5
0 -8 4 -13 2 -13 -6 0 -10 -2 -10 -9 1 -5 7 -14 10 -20 6 -7 -4 -23 5 -38 21
-15 17 -21 30 -14 32 6 2 8 9 4 15 -4 7 0 6 10 -1 9 -8 21 -11 27 -7 5 3 10 1
10 -5 0 -7 7 -9 16 -6 8 3 12 2 9 -4 -3 -6 -1 -10 5 -10 6 0 10 10 8 23 -2 12
-9 21 -15 20 -8 -2 -10 4 -6 13 5 14 9 13 23 -6 13 -17 15 -31 10 -51z m-245
31 c19 -11 35 -16 35 -13 0 4 7 -3 16 -15 12 -17 19 -20 29 -12 10 8 15 8 21
-1 4 -8 3 -9 -4 -5 -7 4 -12 3 -12 -2 0 -5 -12 -14 -26 -20 -14 -7 -23 -8 -20
-3 4 5 -2 8 -11 6 -10 -2 -20 -4 -23 -4 -3 -1 1 -5 9 -10 11 -7 9 -11 -8 -20
-16 -9 -21 -9 -21 1 0 6 -15 -1 -32 -18 -18 -16 -24 -19 -14 -6 11 12 17 25
14 27 -3 3 -17 -8 -31 -25 -26 -30 -27 -30 -56 -15 -17 8 -40 15 -52 15 -28 0
-22 7 11 12 25 3 37 9 71 41 10 9 21 17 24 17 3 0 11 0 19 0 8 0 18 9 21 21 5
14 12 19 23 15 11 -4 8 2 -7 14 -30 25 -21 25 24 0z m356 -27 c-6 -10 -11 -13
-11 -6 0 7 -7 10 -17 7 -15 -5 -15 -4 -3 4 8 6 18 8 22 6 4 -3 8 0 8 7 0 7 3
10 6 6 3 -3 1 -14 -5 -24z m80 10 c13 -16 12 -17 -3 -4 -17 13 -22 21 -14 21
2 0 10 -8 17 -17z m-551 -49 c0 -8 -19 -13 -24 -6 -3 5 1 9 9 9 8 0 15 -2 15
-3z m-15 -84 c3 -5 -1 -10 -9 -10 -9 0 -16 5 -16 10 0 6 4 10 9 10 6 0 13 -4
16 -10z m255 -17 c0 -3 -7 -2 -16 1 -11 4 -15 2 -11 -7 3 -8 -1 -14 -8 -14
-10 0 -11 5 -4 18 8 16 39 17 39 2z m-960 1 c0 -8 -19 -13 -24 -6 -3 5 1 9 9
9 8 0 15 -2 15 -3z m-1027 -20 c-5 -13 -1 -15 18 -10 13 3 18 3 11 0 -6 -3
-10 -10 -6 -15 9 -15 -13 -10 -26 6 -6 8 -9 19 -5 25 10 16 15 12 8 -6z m685
-9 c-3 -3 -9 2 -12 12 -6 14 -5 15 5 6 7 -7 10 -15 7 -18z m1434 3 c-7 -7 -12
-8 -12 -2 0 14 12 26 19 19 2 -3 -1 -11 -7 -17z m-1626 -8 c0 -11 -1 -20 -3
-20 -1 0 -7 9 -13 20 -8 15 -8 20 3 20 7 0 13 -9 13 -20z m581 -17 c-3 -10 -5
-4 -5 12 0 17 2 24 5 18 2 -7 2 -21 0 -30z m-332 -4 c11 -17 -1 -21 -15 -4 -8
9 -8 15 -2 15 6 0 14 -5 17 -11z m446 -26 c-12 -20 -14 -14 -5 12 4 9 9 14 11
11 3 -2 0 -13 -6 -23z m84 -12 c3 -5 1 -12 -5 -16 -6 -4 -7 -12 -4 -18 4 -7 4
-9 -1 -5 -4 4 -15 2 -24 -4 -9 -7 -5 0 8 15 24 27 17 38 -9 15 -12 -11 -12
-10 -1 5 15 19 27 22 36 8z m-339 -28 c-3 -8 -6 -21 -6 -29 0 -9 -5 -12 -11
-8 -6 3 -9 15 -6 25 3 11 1 19 -5 19 -5 0 -7 4 -3 10 9 14 37 -1 31 -17z
m1493 -46 c8 -10 7 -14 -4 -14 -8 0 -15 6 -15 14 0 7 2 13 4 13 2 0 9 -6 15
-13z m-1262 -12 c0 -8 -4 -15 -9 -15 -10 0 -11 14 -1 23 9 10 10 9 10 -8z m46
-10 c-3 -9 -8 -14 -10 -11 -3 3 -2 9 2 15 9 16 15 13 8 -4z m-193 -9 c0 -2 -8
-10 -17 -17 -16 -13 -17 -12 -4 4 13 16 21 21 21 13z m143 -46 c3 -11 1 -18
-4 -14 -5 3 -9 0 -9 -5 0 -6 5 -11 10 -11 6 0 10 -4 10 -10 0 -5 -3 -9 -7 -9
-20 3 -26 -2 -13 -11 13 -8 12 -10 -3 -10 -11 0 -15 -4 -11 -12 4 -7 3 -8 -5
-4 -9 6 -9 13 2 29 7 12 12 37 11 54 -2 35 10 37 19 3z m37 6 c0 -3 -4 -8 -10
-11 -5 -3 -10 -1 -10 4 0 6 5 11 10 11 6 0 10 -2 10 -4z m-17 -71 c-3 -9 -8
-14 -10 -11 -3 3 -2 9 2 15 9 16 15 13 8 -4z m192 -45 c3 -6 -1 -7 -9 -4 -18
7 -21 14 -7 14 6 0 13 -4 16 -10z m-184 -53 c-10 -9 -11 -8 -5 6 3 10 9 15 12
12 3 -3 0 -11 -7 -18z m-56 -19 c-1 -13 -8 -23 -16 -23 -8 0 -14 -8 -14 -18 0
-10 -9 -23 -19 -29 -14 -8 -15 -12 -6 -18 9 -6 0 -17 -28 -38 -42 -30 -47 -50
-8 -31 20 10 20 10 2 -5 -11 -9 -24 -16 -29 -16 -4 0 -5 -5 -2 -10 5 -8 12 -7
23 2 15 12 16 11 3 -4 -7 -10 -17 -15 -22 -12 -5 3 -9 1 -9 -3 0 -5 -13 -9
-30 -9 -16 -1 -27 2 -25 6 3 5 1 11 -5 15 -13 8 -3 25 13 25 7 0 6 -4 -3 -10
-13 -8 -12 -10 3 -10 9 0 17 -5 17 -11 0 -5 5 -7 11 -3 8 4 8 9 0 17 -18 18
-13 31 6 16 14 -12 16 -12 11 1 -5 14 23 61 36 60 21 -1 26 1 21 10 -4 6 -10
8 -15 5 -15 -9 -5 20 18 53 13 17 28 31 35 29 7 -1 13 5 13 13 3 29 4 31 12
26 5 -3 8 -15 7 -28z m638 3 c26 -6 37 -6 37 3 0 6 6 2 12 -9 6 -11 22 -29 35
-40 13 -11 26 -33 27 -48 3 -26 2 -27 -14 -12 -11 10 -20 13 -24 6 -4 -6 -25
3 -52 22 -36 25 -55 32 -95 32 -40 0 -49 3 -49 18 0 11 8 17 23 17 12 0 29 5
37 10 18 12 16 12 63 1z m-384 -20 l24 -19 -22 -7 c-26 -8 -52 10 -44 31 7 18
13 17 42 -5z m51 -46 c0 -8 -4 -15 -10 -15 -5 0 -7 7 -4 15 4 8 8 15 10 15 2
0 4 -7 4 -15z m305 -5 c3 -6 -1 -7 -9 -4 -18 7 -21 14 -7 14 6 0 13 -4 16 -10z
m-625 -20 c0 -5 -5 -10 -11 -10 -5 0 -7 5 -4 10 3 6 8 10 11 10 2 0 4 -4 4
-10z m54 1 c3 -5 -2 -15 -12 -22 -15 -12 -16 -12 -5 2 7 9 10 19 6 22 -3 4 -4
7 0 7 3 0 8 -4 11 -9z m571 -16 l30 -24 -36 -1 c-42 0 -49 5 -42 31 7 25 12
24 48 -6z m-128 1 c0 -8 -6 -12 -15 -9 -11 5 -11 7 0 14 7 5 13 9 14 9 0 0 1
-6 1 -14z m-525 -48 c-7 -7 -12 -8 -12 -2 0 14 12 26 19 19 2 -3 -1 -11 -7
-17z m3 -49 c-4 -11 -2 -19 5 -19 6 0 8 -4 5 -10 -4 -6 -11 -5 -20 3 -9 8 -10
16 -3 24 5 7 6 18 2 24 -4 8 -3 9 5 5 6 -4 9 -16 6 -27z m-155 -3 c0 -2 -8
-10 -17 -17 -16 -13 -17 -12 -4 4 13 16 21 21 21 13z m-96 -31 c4 -11 -1 -14
-19 -13 -18 2 -21 5 -13 15 14 17 25 16 32 -2z m176 0 c-14 -17 -55 -21 -45
-4 4 6 13 8 21 5 7 -3 16 -1 19 4 4 6 9 10 12 10 3 0 0 -7 -7 -15z m60 -25 c0
-5 -2 -10 -4 -10 -3 0 -8 5 -11 10 -3 6 -1 10 4 10 6 0 11 -4 11 -10z m-119
-14 c-9 -11 -9 -16 0 -21 8 -6 7 -10 -2 -17 -10 -7 -5 -8 14 -4 22 5 27 3 26
-11 0 -11 -3 -13 -6 -6 -3 10 -10 10 -25 2 -26 -14 -47 3 -30 24 7 8 9 17 5
21 -4 4 -1 11 7 16 21 14 24 12 11 -4z m-99 -10 c10 -7 14 -17 10 -21 -4 -5
-1 -5 6 -1 6 4 12 2 12 -3 0 -6 -5 -11 -11 -11 -5 0 -7 -5 -3 -11 5 -8 10 -6
16 5 5 9 7 20 4 25 -3 5 1 14 8 20 11 9 16 9 22 0 5 -8 3 -9 -6 -4 -13 8 -13
6 2 -45 3 -8 3 -12 1 -7 -9 15 -22 6 -17 -10 4 -11 3 -14 -3 -7 -4 6 -22 11
-40 10 -28 -1 -30 1 -17 15 19 21 18 36 -3 48 -10 6 -13 10 -8 10 6 0 18 -6
27 -13z m228 -4 c0 -5 -7 -9 -15 -9 -8 0 -12 4 -9 9 3 4 9 8 15 8 5 0 9 -4 9
-8z m-309 -65 c-10 -9 -11 -8 -5 6 3 10 9 15 12 12 3 -3 0 -11 -7 -18z m294
13 c-3 -5 -11 -10 -16 -10 -6 0 -7 5 -4 10 3 6 11 10 16 10 6 0 7 -4 4 -10z
m-375 -60 c0 -4 -6 -10 -14 -13 -12 -5 -14 2 -7 31 2 7 21 -10 21 -18z m1426
-46 c-4 -37 -13 -76 -21 -88 -17 -23 -20 -40 -6 -31 5 3 3 -8 -5 -25 -9 -17
-24 -35 -35 -41 -11 -5 -17 -14 -14 -20 4 -5 1 -9 -5 -9 -6 0 -8 -6 -4 -12 4
-7 4 -10 -1 -6 -4 4 -14 3 -20 -2 -7 -6 10 32 36 83 43 81 48 100 49 155 0 51
3 62 16 62 15 0 16 -9 10 -66z m-1339 30 c-3 -3 -12 -4 -19 -1 -8 3 -5 6 6 6
11 1 17 -2 13 -5z m-68 -27 c-2 -1 -13 -9 -24 -17 -19 -14 -19 -14 -6 3 7 9
18 17 24 17 6 0 8 -1 6 -3z m304 -12 c-3 -9 -8 -14 -10 -11 -3 3 -2 9 2 15 9
16 15 13 8 -4z m-63 -20 c-7 -9 -15 -13 -19 -10 -3 3 1 10 9 15 21 14 24 12
10 -5z m-46 -6 c9 8 13 7 13 -4 0 -8 -4 -12 -8 -9 -4 2 -12 -4 -18 -13 -10
-17 -10 -17 -11 0 0 9 -6 17 -12 17 -9 0 -8 4 2 10 10 6 16 6 18 -1 3 -6 8 -6
16 0z m73 -14 c0 -8 -4 -12 -9 -9 -5 3 -6 10 -3 15 9 13 12 11 12 -6z m20 -7
c-3 -8 -6 -5 -6 6 -1 11 2 17 5 13 3 -3 4 -12 1 -19z m-287 -22 c0 -11 -19
-15 -25 -6 -3 5 1 10 9 10 9 0 16 -2 16 -4z m264 -12 c3 -8 11 -12 17 -8 8 4
7 9 -2 15 -10 6 -8 8 7 7 18 -2 20 -5 10 -20 -14 -23 -19 -23 -41 2 -10 11
-13 20 -8 20 6 0 14 -7 17 -16z m74 -29 c-3 -3 -9 2 -12 12 -6 14 -5 15 5 6 7
-7 10 -15 7 -18z m-98 5 c-8 -5 -22 -9 -30 -9 -10 0 -8 3 5 9 27 12 43 12 25
0z m50 -22 c0 -5 -4 -6 -10 -3 -5 3 -10 1 -10 -6 0 -6 -8 -9 -20 -6 -10 3 -21
0 -23 -7 -2 -6 -8 -8 -12 -3 -5 4 -1 13 8 20 21 15 67 19 67 5z m33 -10 c-4
-7 -8 -17 -8 -22 0 -5 -15 -20 -33 -34 -23 -18 -31 -20 -26 -8 3 9 2 16 -4 16
-12 0 -24 -26 -27 -58 -1 -12 -5 -26 -9 -30 -12 -11 -2 51 12 76 7 12 10 27 7
33 -4 6 3 7 22 3 42 -10 47 -10 48 1 0 12 14 35 21 35 3 0 2 -6 -3 -12z m-23
-72 c0 -2 -7 -9 -15 -16 -13 -11 -14 -10 -9 4 5 14 24 23 24 12z m1070 -3 c0
-6 -71 -73 -78 -73 -3 0 9 15 26 33 18 18 30 36 27 38 -3 3 2 6 10 6 8 0 15
-2 15 -4z m-1100 -43 c-12 -8 -12 -10 -1 -10 11 0 11 -3 1 -15 -7 -8 -18 -15
-24 -14 -7 0 -6 2 2 6 6 2 12 9 12 14 0 6 -4 7 -10 4 -5 -3 -10 -2 -10 4 0 9
16 19 35 20 6 0 3 -4 -5 -9z m1019 -44 c11 -14 6 -15 -27 -7 -4 1 8 21 12 21
2 0 9 -6 15 -14z m-1043 -48 c4 -6 3 -8 -4 -4 -6 3 -15 -2 -21 -11 -6 -10 -11
-13 -11 -7 0 9 19 34 26 34 2 0 6 -5 10 -12z m1024 -2 c0 -2 -8 -10 -17 -17
-16 -13 -17 -12 -4 4 13 16 21 21 21 13z m-59 -69 c-10 -9 -11 -8 -5 6 3 10 9
15 12 12 3 -3 0 -11 -7 -18z m-1015 -9 c4 -7 3 -8 -4 -4 -7 4 -12 2 -12 -3 0
-6 -7 -11 -16 -11 -14 0 -14 3 -4 15 15 18 26 19 36 3z m1015 -31 c-10 -9 -11
-8 -5 6 3 10 9 15 12 12 3 -3 0 -11 -7 -18z m114 -27 c-3 -5 -12 -10 -18 -10
-7 0 -6 4 3 10 19 12 23 12 15 0z m-1565 -35 c-7 -8 -17 -15 -22 -15 -6 0 -5
7 2 15 7 8 17 15 22 15 6 0 5 -7 -2 -15z m1567 -64 c0 -11 -5 -18 -9 -15 -4 3
-5 11 -1 19 7 21 12 19 10 -4z m-1632 -11 c3 -5 -1 -10 -9 -10 -9 0 -16 5 -16
10 0 6 4 10 9 10 6 0 13 -4 16 -10z m180 -10 c-3 -10 1 -32 9 -49 19 -35 3
-53 -15 -19 -17 30 -19 60 -7 76 15 18 20 15 13 -8z m1519 6 c-3 -8 -13 -17
-22 -21 -13 -5 -13 -2 3 15 21 24 26 25 19 6z m-56 -26 c-7 -10 -14 -17 -17
-15 -4 4 18 35 25 35 2 0 -1 -9 -8 -20z m-1377 -4 c-8 -10 -8 -16 3 -25 10 -8
16 -9 21 -1 3 5 1 10 -5 10 -6 0 -8 5 -4 11 4 7 10 7 16 1 6 -6 18 -8 27 -5
14 6 14 4 -2 -14 -9 -11 -14 -22 -11 -25 3 -3 1 -9 -5 -13 -6 -3 -11 -1 -11 6
0 7 -6 5 -13 -6 -15 -20 -37 -13 -37 12 0 10 -6 14 -20 10 -13 -3 -21 1 -26
15 -3 11 -3 22 0 25 3 4 6 -2 6 -12 0 -18 1 -18 15 1 13 16 14 16 9 2 -3 -10
-2 -18 4 -18 5 0 12 9 15 20 3 11 11 20 17 20 9 0 10 -3 1 -14z m689 -21 c-11
-29 -50 -74 -50 -58 0 6 7 16 15 23 8 7 12 17 8 23 -3 5 -1 7 4 4 6 -4 13 2
16 13 3 11 8 20 11 20 3 0 1 -11 -4 -25z m-810 -10 c0 -8 5 -15 10 -15 6 0 9
-5 8 -12 -4 -15 21 -17 46 -5 15 7 23 4 36 -13 11 -14 23 -21 33 -17 11 4 14
2 10 -9 -3 -8 -8 -12 -11 -10 -3 3 -11 1 -19 -6 -7 -6 -36 -11 -63 -11 -27 -1
-47 -3 -45 -6 2 -3 -7 -7 -19 -7 -13 -1 -23 4 -23 11 0 7 8 10 18 8 10 -3 19
2 23 14 7 22 4 39 -7 35 -5 -1 -6 2 -2 8 3 5 1 10 -6 10 -7 0 -9 3 -6 7 4 3 2
12 -4 20 -9 10 -8 13 5 13 9 0 16 -7 16 -15z m1540 10 c0 -2 -6 -8 -13 -14
-10 -8 -14 -7 -14 2 0 8 6 14 14 14 7 0 13 -1 13 -2z m-208 -57 c-8 -8 -9 -4
-5 13 4 13 8 18 11 10 2 -7 -1 -18 -6 -23z m-1151 9 c-6 -8 -7 -18 -3 -22 4
-5 1 -5 -6 -1 -10 6 -10 11 -1 22 6 8 14 14 16 14 3 0 0 -6 -6 -13z m1282 -7
c-8 -30 -21 -34 -15 -5 2 14 8 25 12 25 5 0 6 -9 3 -20z m-1503 -10 c-8 -5
-17 -7 -19 -4 -3 3 1 9 9 14 8 5 17 7 19 4 3 -3 -1 -9 -9 -14z m1567 -12 c-3
-8 -6 -5 -6 6 -1 11 2 17 5 13 3 -3 4 -12 1 -19z m-78 -28 c0 -3 -5 -14 -10
-25 -8 -20 -9 -19 -6 1 1 11 -5 29 -13 39 -14 17 -14 17 8 4 12 -8 22 -16 21
-19z m-316 -17 c-3 -10 -9 -23 -12 -28 -3 -6 1 -4 9 6 15 15 16 13 17 -25 1
-22 -4 -51 -12 -63 -8 -12 -15 -29 -15 -37 0 -8 -10 -25 -22 -37 -13 -12 -17
-19 -10 -15 14 8 14 0 2 -29 -5 -12 -9 -14 -9 -6 -1 8 -9 23 -18 33 -15 17
-16 26 -6 81 18 95 21 105 35 121 19 22 49 21 41 -1z m-1083 -8 c0 -8 -7 -15
-15 -15 -16 0 -20 12 -8 23 11 12 23 8 23 -8z m1288 -10 c-3 -3 -9 2 -12 12
-6 14 -5 15 5 6 7 -7 10 -15 7 -18z m-1378 5 c8 -5 11 -10 5 -10 -5 0 -17 5
-25 10 -8 5 -10 10 -5 10 6 0 17 -5 25 -10z m1258 -52 c0 -32 32 -128 43 -128
5 0 9 -7 9 -16 0 -8 4 -13 8 -10 5 3 18 -4 30 -14 12 -11 25 -20 30 -20 5 0
15 -7 22 -15 10 -12 10 -15 -1 -16 -10 0 -11 -2 -1 -6 6 -2 12 -15 12 -28 0
-13 4 -27 10 -30 6 -3 7 1 4 9 -3 9 -2 16 4 16 6 0 9 -8 7 -17 -1 -10 -9 -17
-16 -15 -15 3 -99 89 -157 161 -33 40 -35 44 -19 56 9 7 17 16 17 21 0 4 -5 3
-12 -4 -32 -32 -45 10 -16 48 13 16 24 29 24 29 1 1 2 -9 2 -21z m-174 -20
c-1 -13 -3 -32 -4 -43 -1 -16 -4 -15 -12 8 -10 28 -5 57 10 57 5 0 8 -10 6
-22z m-1094 2 c0 -5 -8 -10 -17 -10 -15 0 -16 2 -3 10 19 12 20 12 20 0z
m1331 -27 c-11 -5 -11 -7 0 -14 11 -6 11 -11 1 -21 -16 -16 -15 -29 1 -22 8 3
18 -6 25 -21 8 -17 8 -25 1 -25 -6 0 -13 9 -16 20 -3 11 -9 17 -14 15 -4 -3
-12 3 -18 13 -11 21 -4 62 11 62 5 0 6 6 2 13 -4 7 -2 7 7 -2 12 -11 12 -14 0
-18z m231 -35 c-16 -29 -29 -64 -27 -77 2 -22 1 -22 -11 -6 -11 14 -9 25 14
68 29 54 45 77 51 72 2 -2 -10 -28 -27 -57z m158 -51 c-10 -42 -15 -3 -10 76
l2 32 8 -38 c4 -21 4 -53 0 -70z m-6 -76 c8 -11 8 -13 -1 -8 -6 4 -13 2 -15
-5 -3 -7 -5 5 -5 27 0 22 2 31 4 20 3 -11 10 -26 17 -34z m-207 -43 c-2 -13
-4 -5 -4 17 -1 22 1 32 4 23 2 -10 2 -28 0 -40z m207 -53 c3 -8 1 -15 -3 -15
-5 0 -11 7 -15 15 -3 8 -1 15 3 15 5 0 11 -7 15 -15z"/>
<path d="M1090 2535 c-9 -10 -9 -15 -1 -15 6 0 11 5 11 11 0 5 5 7 12 3 7 -4
8 -3 4 4 -9 15 -11 15 -26 -3z"/>
<path d="M1842 2511 c4 -13 18 -16 19 -4 0 4 -5 9 -11 12 -7 2 -11 -2 -8 -8z"/>
<path d="M686 1467 c3 -10 9 -15 12 -12 3 3 0 11 -7 18 -10 9 -11 8 -5 -6z"/>
<path d="M635 1422 c-11 -12 -3 -17 28 -18 17 -1 24 1 14 3 -9 2 -15 8 -13 12
6 8 -21 11 -29 3z"/>
<path d="M1705 1310 c-4 -6 -11 -7 -17 -4 -7 4 -8 2 -4 -4 4 -7 2 -12 -5 -12
-7 0 -10 -2 -7 -5 8 -8 43 9 46 23 3 15 -4 16 -13 2z"/>
<path d="M652 3475 c-14 -29 2 -34 18 -6 12 24 13 31 2 31 -5 0 -14 -11 -20
-25z"/>
<path d="M780 3490 c12 -8 12 -10 -3 -16 -9 -3 -14 -10 -11 -15 7 -11 44 12
44 28 0 7 -10 13 -22 13 -18 0 -20 -2 -8 -10z"/>
<path d="M2261 3486 c-8 -10 -9 -16 -1 -21 5 -3 10 -1 10 5 0 6 4 8 10 5 6 -3
7 1 4 9 -7 19 -9 20 -23 2z"/>
<path d="M2290 3493 c0 -1 9 -7 20 -13 15 -8 20 -8 20 3 0 7 -9 13 -20 13 -11
0 -20 -1 -20 -3z"/>
<path d="M2566 3423 c-19 -229 -36 -453 -36 -487 0 -20 -3 -26 -9 -18 -4 7 -6
-13 -4 -45 3 -43 2 -54 -6 -43 -10 13 -11 13 -11 0 0 -8 10 -26 21 -40 11 -14
18 -20 15 -13 -3 6 3 134 14 285 12 150 24 310 27 356 3 45 4 82 1 82 -3 0 -9
-35 -12 -77z"/>
<path d="M2716 3458 c-3 -24 -12 -126 -21 -228 -8 -102 -20 -230 -25 -285 -5
-55 -14 -158 -20 -229 -6 -71 -15 -137 -20 -146 -5 -9 -12 -61 -15 -116 -4
-54 -9 -107 -12 -118 -3 -12 -1 -16 6 -12 6 4 11 3 11 -3 0 -5 -4 -12 -8 -15
-4 -3 -6 -21 -4 -41 4 -34 5 -35 18 -17 13 19 13 29 -2 96 -4 19 -3 26 5 22 7
-5 11 4 11 24 0 22 -4 29 -12 24 -10 -5 -10 -4 -2 5 6 7 9 34 7 64 -3 40 -2
49 7 37 9 -12 10 -8 5 16 -5 26 -2 35 21 53 37 29 85 27 114 -4 21 -23 22 -29
16 -117 -11 -155 -16 -179 -45 -206 -25 -23 -51 -25 -93 -8 -25 11 -50 -42
-39 -82 5 -17 8 -32 8 -34 -1 -2 4 4 12 12 12 13 13 13 6 -5 -15 -41 -15 -51
-2 -115 9 -39 11 -72 6 -82 -5 -9 -9 -32 -9 -52 0 -19 -4 -38 -10 -41 -5 -3
-10 -16 -10 -29 0 -12 -6 -28 -12 -35 -11 -11 -10 -12 1 -6 12 7 13 -4 8 -67
-3 -51 -1 -80 6 -88 9 -10 8 -12 -5 -7 -14 5 -18 1 -18 -18 0 -14 -4 -25 -9
-25 -4 0 -6 -12 -3 -26 4 -21 2 -25 -8 -19 -10 6 -12 4 -7 -9 4 -10 7 -24 7
-32 0 -14 25 -15 48 -1 7 5 12 3 12 -6 0 -8 10 -15 23 -16 52 -3 75 -6 71 -12
-2 -4 11 -13 29 -20 17 -7 35 -17 38 -22 4 -5 23 -19 44 -31 36 -20 38 -24 40
-76 2 -55 30 -145 54 -174 13 -15 22 -44 44 -138 7 -32 16 -48 26 -48 10 0 12
-3 5 -8 -19 -13 -9 -63 23 -109 13 -17 25 -48 27 -70 3 -21 9 -65 13 -98 9
-71 8 -110 -1 -190 -5 -39 -3 -70 4 -90 7 -16 14 -91 17 -165 5 -159 5 -147
-3 -187 l-6 -33 206 0 206 0 0 1750 0 1750 -389 0 -390 0 -5 -42z m369 -916
c-3 -3 -11 0 -18 7 -9 10 -8 11 6 5 10 -3 15 -9 12 -12z m-355 -576 c0 -2 -7
-9 -15 -16 -13 -11 -14 -10 -9 4 5 14 24 23 24 12z m-56 -42 c9 -24 2 -26 -12
-4 -7 11 -8 20 -3 20 5 0 12 -7 15 -16z m64 -400 c-4 -3 -12 5 -18 18 -12 22
-12 22 6 6 10 -10 15 -20 12 -24z"/>
<path d="M2352 3485 c4 -4 3 -17 -3 -28 -7 -11 -7 -17 -1 -13 5 3 15 -1 22 -9
7 -9 8 -15 2 -15 -5 0 -13 -8 -16 -17 -6 -15 -4 -15 14 2 11 10 21 14 22 9 5
-33 2 -62 -9 -73 -8 -7 -13 -8 -13 -1 0 5 -4 10 -9 10 -5 0 -8 -8 -6 -17 1
-10 -2 -26 -7 -35 -5 -11 -5 -18 1 -18 5 0 12 8 15 17 6 15 8 15 16 3 13 -20
13 -43 0 -35 -11 7 -14 -8 -4 -18 17 -16 29 24 28 93 -1 96 -2 100 -15 98 -6
-2 -14 3 -17 11 -3 8 0 11 7 7 6 -4 11 -2 11 4 0 7 -7 9 -16 6 -8 -3 -12 -2
-9 3 3 5 0 13 -7 17 -7 4 -10 4 -6 -1z"/>
<path d="M2395 3470 c10 -11 19 -20 19 -20 1 0 2 9 2 20 0 13 -7 20 -20 20
-18 0 -19 -1 -1 -20z"/>
<path d="M2363 3383 c-18 -7 -16 -20 2 -20 8 0 15 6 15 14 0 7 -1 13 -2 12 -2
0 -9 -3 -15 -6z"/>
<path d="M2300 3367 c0 -2 6 -10 14 -16 11 -9 16 -9 22 1 4 7 4 10 -1 6 -4 -4
-14 -3 -22 3 -7 6 -13 9 -13 6z"/>
<path d="M2240 3309 c0 -11 4 -18 10 -14 5 3 7 12 3 20 -7 21 -13 19 -13 -6z"/>
<path d="M2403 3110 c0 -25 2 -35 4 -22 2 12 2 32 0 45 -2 12 -4 2 -4 -23z"/>
<path d="M2280 3081 c0 -6 4 -13 10 -16 6 -3 7 1 4 9 -7 18 -14 21 -14 7z"/>
<path d="M549 2958 c-1 -7 0 -17 1 -23 2 -5 3 -19 2 -30 0 -11 2 -14 5 -7 3 6
8 10 12 7 5 -2 8 10 7 27 -1 30 -25 53 -27 26z m19 -33 c-3 -3 -9 2 -12 12 -6
14 -5 15 5 6 7 -7 10 -15 7 -18z"/>
<path d="M2350 2961 c0 -6 4 -13 10 -16 6 -3 7 1 4 9 -7 18 -14 21 -14 7z"/>
<path d="M75 2950 c-3 -5 -1 -10 4 -10 6 0 11 5 11 10 0 6 -2 10 -4 10 -3 0
-8 -4 -11 -10z"/>
<path d="M980 2950 c0 -5 5 -10 11 -10 5 0 7 5 4 10 -3 6 -8 10 -11 10 -2 0
-4 -4 -4 -10z"/>
<path d="M12 2921 c7 -9 13 -18 15 -20 1 -2 1 5 0 16 0 11 -7 20 -14 20 -10 0
-10 -4 -1 -16z"/>
<path d="M44 2926 c1 -8 5 -18 8 -22 4 -3 5 1 4 10 -1 8 -5 18 -8 22 -4 3 -5
-1 -4 -10z"/>
<path d="M71 2914 c0 -11 3 -14 6 -6 3 7 2 16 -1 19 -3 4 -6 -2 -5 -13z"/>
<path d="M110 2908 c0 -5 -6 -6 -12 -2 -9 5 -10 4 -3 -4 7 -7 23 -8 49 -2 44
10 58 6 50 -14 -6 -15 13 -32 24 -21 3 3 0 10 -8 15 -13 8 -13 10 -1 10 12 0
12 3 3 12 -15 15 -102 20 -102 6z"/>
<path d="M246 2903 c-7 -18 34 -16 59 3 19 14 18 15 -17 12 -21 -1 -40 -8 -42
-15z"/>
<path d="M501 2904 c0 -11 3 -14 6 -6 3 7 2 16 -1 19 -3 4 -6 -2 -5 -13z"/>
<path d="M807 2900 c3 -11 9 -20 15 -20 5 0 4 9 -2 20 -6 11 -12 20 -14 20 -2
0 -2 -9 1 -20z"/>
<path d="M845 2899 c-4 -6 -5 -12 -2 -15 2 -3 7 2 10 11 7 17 1 20 -8 4z"/>
<path d="M320 2890 c0 -5 5 -10 11 -10 5 0 7 5 4 10 -3 6 -8 10 -11 10 -2 0
-4 -4 -4 -10z"/>
<path d="M360 2890 c0 -5 5 -10 11 -10 5 0 7 5 4 10 -3 6 -8 10 -11 10 -2 0
-4 -4 -4 -10z"/>
<path d="M1906 2887 c3 -10 9 -15 12 -12 3 3 0 11 -7 18 -10 9 -11 8 -5 -6z"/>
<path d="M895 2880 c-3 -5 -1 -10 4 -10 6 0 11 5 11 10 0 6 -2 10 -4 10 -3 0
-8 -4 -11 -10z"/>
<path d="M560 2870 c0 -5 5 -10 10 -10 6 0 10 5 10 10 0 6 -4 10 -10 10 -5 0
-10 -4 -10 -10z"/>
<path d="M1117 2863 c-11 -10 -8 -20 7 -26 10 -4 12 0 9 14 -6 21 -7 22 -16
12z"/>
<path d="M167 2810 l-26 -50 23 17 c13 10 23 23 23 28 -1 6 3 9 10 8 8 -2 10
4 6 15 -3 9 -3 14 2 10 4 -4 17 -2 28 3 15 8 22 8 28 -2 6 -10 9 -10 9 -2 0
18 -18 25 -38 14 -13 -7 -22 -7 -29 0 -6 6 -19 -7 -36 -41z"/>
<path d="M835 2850 c-3 -5 -1 -10 4 -10 6 0 11 5 11 10 0 6 -2 10 -4 10 -3 0
-8 -4 -11 -10z"/>
<path d="M564 2835 c-4 -8 -10 -12 -15 -9 -5 3 -9 1 -9 -5 0 -27 31 -13 38 17
3 17 -8 15 -14 -3z"/>
<path d="M730 2838 c0 -7 4 -19 9 -27 7 -10 9 -7 8 12 -2 26 -17 39 -17 15z"/>
<path d="M686 2825 c-11 -8 -15 -15 -9 -15 6 0 16 7 23 15 16 19 11 19 -14 0z"/>
<path d="M1077 2827 c-3 -8 1 -14 8 -14 7 0 11 6 8 14 -3 7 -6 13 -8 13 -2 0
-5 -6 -8 -13z"/>
<path d="M390 2819 c0 -5 5 -7 10 -4 6 3 10 8 10 11 0 2 -4 4 -10 4 -5 0 -10
-5 -10 -11z"/>
<path d="M476 2796 c-27 -32 -32 -46 -17 -46 5 0 17 -3 27 -7 12 -4 15 -3 10
6 -4 6 -2 20 6 29 12 15 11 16 -4 3 -21 -16 -23 -4 -4 21 8 12 16 14 23 7 6
-6 10 -5 10 4 0 23 -23 15 -51 -17z"/>
<path d="M865 2820 c3 -5 8 -10 11 -10 2 0 4 5 4 10 0 6 -5 10 -11 10 -5 0 -7
-4 -4 -10z"/>
<path d="M603 2800 c3 -11 1 -20 -5 -20 -5 0 -6 -5 -3 -11 9 -14 16 -6 19 25
2 14 -1 26 -7 26 -5 0 -7 -9 -4 -20z"/>
<path d="M225 2769 c0 -32 7 -36 24 -16 8 11 7 18 -7 30 -16 14 -17 14 -17
-14z"/>
<path d="M330 2796 c0 -2 7 -7 16 -10 8 -3 12 -2 9 4 -6 10 -25 14 -25 6z"/>
<path d="M694 2785 c-5 -12 -10 -13 -20 -4 -11 9 -14 8 -14 -2 0 -12 -2 -12
-9 -1 -7 11 -9 11 -14 0 -3 -8 0 -15 6 -15 7 0 18 -2 25 -4 8 -2 21 6 29 19 9
12 12 22 9 22 -4 0 -9 -7 -12 -15z"/>
<path d="M1881 2775 c-1 -24 -3 -27 -12 -15 -9 13 -10 13 -6 -1 3 -9 2 -21 -1
-25 -4 -5 1 -2 11 7 12 10 17 25 14 40 -4 21 -4 20 -6 -6z"/>
<path d="M388 2783 c7 -3 16 -2 19 1 4 3 -2 6 -13 5 -11 0 -14 -3 -6 -6z"/>
<path d="M177 2773 c-3 -5 0 -19 7 -32 9 -15 16 -20 20 -12 4 6 1 11 -6 11
-11 0 -11 2 0 9 10 6 10 10 -2 20 -8 7 -16 8 -19 4z"/>
<path d="M259 2743 c-13 -16 -12 -17 4 -4 9 7 17 15 17 17 0 8 -8 3 -21 -13z"/>
<path d="M386 2743 c-6 -14 -5 -15 5 -6 7 7 10 15 7 18 -3 3 -9 -2 -12 -12z"/>
<path d="M2540 2742 c0 -12 5 -22 11 -22 5 0 8 -4 5 -9 -3 -5 1 -11 9 -15 8
-3 15 -10 15 -16 0 -6 -4 -9 -9 -6 -5 3 -14 -1 -21 -9 -11 -13 -10 -14 3 -9
12 4 20 -2 27 -20 5 -14 12 -26 15 -26 2 0 0 12 -5 26 -13 32 -13 37 1 28 6
-4 -1 15 -17 42 -35 62 -34 61 -34 36z"/>
<path d="M148 2743 c7 -3 16 -2 19 1 4 3 -2 6 -13 5 -11 0 -14 -3 -6 -6z"/>
<path d="M544 2736 c18 -15 18 -16 -8 -25 -29 -12 -36 -26 -8 -19 10 3 24 -2
31 -10 12 -12 12 -15 0 -23 -8 -5 -21 -9 -29 -10 -11 0 -11 -2 -2 -6 10 -4 10
-8 0 -21 -7 -8 -12 -18 -10 -21 2 -3 -1 -7 -7 -9 -7 -2 -8 3 -4 14 4 12 2 15
-8 12 -8 -3 -13 -12 -11 -21 2 -13 -5 -15 -40 -13 -24 2 -52 -1 -63 -7 -11 -6
-26 -12 -33 -13 -8 -1 -17 -6 -20 -10 -4 -4 0 -5 9 -1 9 3 27 -1 38 -10 12 -8
25 -12 28 -9 3 3 -2 8 -11 12 -9 3 -16 10 -16 14 0 12 30 21 43 13 20 -13 78
-12 70 1 -4 6 0 6 9 -2 13 -10 16 -9 21 9 4 13 10 18 17 14 9 -6 9 -10 -1 -17
-11 -8 -11 -9 1 -5 8 2 14 10 13 16 -4 15 24 14 30 -1 3 -10 7 -10 20 1 15 12
21 9 19 -10 -1 -3 5 -6 12 -6 6 0 13 10 14 21 1 17 -1 18 -8 6 -8 -13 -10 -13
-10 1 0 24 10 29 32 18 14 -8 24 -7 35 3 9 7 21 13 27 14 31 3 36 5 36 13 0
14 -44 7 -58 -9 -10 -13 -11 -13 -6 2 4 13 1 15 -15 11 -11 -3 -19 -8 -17 -12
2 -3 -7 -6 -20 -6 -13 0 -24 3 -24 7 0 4 -7 4 -17 1 -11 -4 -14 -3 -9 5 4 7 2
12 -3 12 -6 0 -11 7 -11 15 0 8 -5 15 -11 15 -6 0 -9 9 -6 20 4 14 -1 23 -16
31 -21 10 -21 9 -3 -5z m16 -122 c0 -8 -19 -13 -24 -6 -3 5 1 9 9 9 8 0 15 -2
15 -3z"/>
<path d="M899 2741 c-13 -5 -13 -8 1 -22 15 -14 17 -13 26 6 11 23 3 27 -27
16z"/>
<path d="M993 2738 c1 -6 -7 -14 -17 -16 -20 -4 -53 -32 -39 -32 4 0 -1 -7
-11 -15 -11 -8 -17 -17 -14 -20 6 -6 98 78 98 89 0 3 -4 6 -10 6 -5 0 -9 -5
-7 -12z"/>
<path d="M433 2713 c-7 -15 -13 -32 -13 -39 0 -7 -6 -15 -12 -17 -10 -4 -10
-6 0 -6 8 -1 16 8 19 19 3 11 14 20 24 20 10 0 21 5 25 12 4 7 3 8 -4 4 -8 -5
-12 0 -12 13 0 29 -13 26 -27 -6z"/>
<path d="M585 2732 c-10 -10 -5 -19 10 -19 8 0 15 4 15 8 0 4 10 6 21 4 12 -3
19 -1 15 2 -8 9 -54 12 -61 5z"/>
<path d="M797 2727 c-3 -8 1 -14 8 -14 7 0 11 6 8 14 -3 7 -6 13 -8 13 -2 0
-5 -6 -8 -13z"/>
<path d="M1046 2724 c-11 -8 -16 -14 -10 -14 13 0 39 18 34 24 -3 2 -14 -2
-24 -10z"/>
<path d="M669 2728 c0 -2 -2 -10 -4 -18 -11 -44 -15 -64 -9 -52 3 6 10 9 16 6
5 -3 8 2 7 12 -2 11 0 24 4 31 4 6 3 14 -3 18 -5 3 -10 5 -11 3z"/>
<path d="M1090 2720 c0 -5 5 -10 11 -10 5 0 7 5 4 10 -3 6 -8 10 -11 10 -2 0
-4 -4 -4 -10z"/>
<path d="M0 2716 c0 -2 9 -6 20 -9 11 -3 20 -1 20 4 0 5 -9 9 -20 9 -11 0 -20
-2 -20 -4z"/>
<path d="M860 2716 c0 -3 9 -10 20 -16 11 -6 20 -8 20 -6 0 3 -9 10 -20 16
-11 6 -20 8 -20 6z"/>
<path d="M1891 2704 c0 -11 3 -14 6 -6 3 7 2 16 -1 19 -3 4 -6 -2 -5 -13z"/>
<path d="M186 2701 c-19 -7 -19 -8 2 -13 15 -4 22 -2 22 8 0 8 -1 14 -2 13 -2
0 -12 -4 -22 -8z"/>
<path d="M9 2692 c-7 -33 -4 -49 7 -49 11 0 11 4 2 14 -9 11 -8 13 3 11 8 -2
17 -7 21 -12 4 -6 12 -5 20 2 11 9 20 8 38 -5 13 -9 20 -11 16 -4 -5 7 -1 18
10 26 14 10 21 10 26 2 5 -8 8 -5 8 6 0 10 -3 17 -7 15 -5 -2 -21 -10 -36 -18
-24 -12 -30 -12 -37 0 -9 14 -69 24 -71 12z"/>
<path d="M623 2681 c0 -11 5 -17 9 -15 11 7 10 34 -1 34 -6 0 -9 -9 -8 -19z"/>
<path d="M703 2693 c-17 -6 -17 -20 0 -20 8 0 14 6 14 14 0 7 -1 13 -1 12 -1
0 -7 -3 -13 -6z"/>
<path d="M995 2683 c3 -8 5 -17 5 -19 0 -2 8 -4 18 -4 14 0 15 2 2 10 -13 8
-12 10 4 10 25 0 12 13 -15 15 -13 1 -18 -3 -14 -12z"/>
<path d="M1091 2686 c-16 -19 -35 -22 -26 -3 4 6 -1 3 -10 -8 -14 -18 -14 -20
-1 -23 9 -2 16 -8 16 -14 0 -6 9 1 21 16 22 29 23 59 0 32z m9 -10 c0 -2 -8
-10 -17 -17 -16 -13 -17 -12 -4 4 13 16 21 21 21 13z"/>
<path d="M215 2680 c-3 -5 -13 -10 -22 -10 -8 0 -27 -10 -41 -22 -15 -11 -19
-18 -10 -15 9 3 18 1 21 -6 2 -7 30 -12 72 -13 58 -1 68 1 72 17 4 15 11 17
32 13 50 -12 47 -14 43 31 -3 23 -22 18 -22 -6 0 -18 -4 -20 -32 -14 -18 4
-38 11 -44 16 -6 5 -13 6 -17 3 -3 -3 -14 -1 -26 5 -13 7 -22 8 -26 1z"/>
<path d="M730 2679 c0 -5 5 -7 10 -4 6 3 10 8 10 11 0 2 -4 4 -10 4 -5 0 -10
-5 -10 -11z"/>
<path d="M974 2683 c4 -7 2 -13 -5 -13 -6 0 -9 -8 -6 -20 3 -10 -1 -24 -9 -31
-11 -9 -14 -8 -14 6 0 12 -5 15 -16 11 -9 -3 -18 -6 -20 -6 -2 0 -4 -7 -4 -15
0 -10 9 -13 30 -10 32 4 36 -2 17 -25 -28 -34 -82 -51 -89 -28 -3 8 -7 6 -11
-4 -3 -9 1 -22 9 -28 11 -10 14 -10 14 -1 0 8 8 10 23 5 12 -4 33 -7 47 -7 18
1 20 -1 6 -4 -15 -4 -16 -7 -5 -15 11 -8 10 -9 -4 -4 -10 3 -16 2 -13 -2 3 -5
-1 -9 -9 -9 -11 0 -12 4 -4 14 9 9 8 13 0 13 -6 0 -14 -7 -17 -15 -5 -13 -9
-13 -22 -3 -11 9 -14 9 -9 1 5 -7 -1 -17 -14 -23 -11 -7 -18 -14 -15 -17 3 -4
15 2 27 13 24 21 28 22 40 2 7 -11 9 -10 9 1 0 11 5 10 23 -5 12 -10 17 -12
10 -5 -10 11 -7 18 12 32 29 24 42 24 24 2 -13 -16 -12 -17 4 -4 9 7 17 9 17
3 0 -5 9 -8 20 -5 21 6 26 18 10 28 -5 3 -7 12 -4 20 3 7 1 22 -6 32 -10 16
-10 16 -5 -4 4 -15 2 -21 -9 -19 -19 3 -34 16 -18 16 6 0 10 9 9 19 0 11 -5
17 -10 14 -18 -11 -24 20 -10 49 12 24 13 32 3 41 -10 9 -11 9 -6 0z m11 -111
c-3 -3 -11 0 -18 7 -9 10 -8 11 6 5 10 -3 15 -9 12 -12z m36 -59 c15 -15 -8
-12 -36 5 -19 11 -19 12 3 9 12 -2 27 -8 33 -14z"/>
<path d="M510 2670 c0 -5 5 -10 11 -10 5 0 7 5 4 10 -3 6 -8 10 -11 10 -2 0
-4 -4 -4 -10z"/>
<path d="M826 2663 c-6 -14 -5 -15 5 -6 7 7 10 15 7 18 -3 3 -9 -2 -12 -12z"/>
<path d="M1116 2661 c-4 -6 -4 -11 0 -11 3 0 -4 -9 -17 -20 -21 -17 -22 -19
-6 -20 10 0 15 5 12 10 -3 6 1 10 9 10 20 0 31 19 18 32 -6 6 -12 6 -16 -1z"/>
<path d="M770 2641 c0 -6 -11 -21 -25 -33 -27 -24 -25 -39 5 -31 13 3 20 14
20 28 0 13 5 25 12 27 9 3 9 6 0 12 -7 4 -12 2 -12 -3z"/>
<path d="M792 2629 c-15 -23 2 -26 23 -5 12 11 12 15 2 19 -8 3 -19 -4 -25
-14z"/>
<path d="M1881 2634 c0 -11 3 -14 6 -6 3 7 2 16 -1 19 -3 4 -6 -2 -5 -13z"/>
<path d="M0 2611 c0 -25 18 -37 26 -17 5 12 11 13 24 6 11 -6 21 -6 24 -1 6 9
-14 20 -51 27 -18 3 -23 0 -23 -15z"/>
<path d="M405 2620 c-4 -6 3 -10 14 -10 25 0 27 6 6 13 -8 4 -17 2 -20 -3z"/>
<path d="M320 2598 c-12 -22 -12 -22 6 -6 10 10 15 20 12 24 -4 3 -12 -5 -18
-18z"/>
<path d="M680 2589 c0 -5 -6 -7 -12 -3 -8 5 -8 1 2 -12 8 -10 15 -20 16 -22 1
-2 2 9 2 23 0 14 -2 25 -4 25 -2 0 -4 -5 -4 -11z"/>
<path d="M925 2590 c3 -5 8 -10 11 -10 2 0 4 5 4 10 0 6 -5 10 -11 10 -5 0 -7
-4 -4 -10z"/>
<path d="M270 2581 c-8 -6 -18 -7 -24 -4 -5 3 -6 1 -2 -5 4 -6 13 -9 22 -5 9
3 14 0 12 -7 -2 -7 3 -15 10 -17 14 -6 16 13 2 22 -6 4 -8 11 -5 16 8 11 4 11
-15 0z"/>
<path d="M2010 2585 c0 -5 5 -17 10 -25 5 -8 10 -10 10 -5 0 6 -5 17 -10 25
-5 8 -10 11 -10 5z"/>
<path d="M2699 2573 c-12 -16 -12 -17 1 -7 8 6 22 14 30 17 13 5 12 6 -1 6 -9
1 -23 -7 -30 -16z"/>
<path d="M143 2565 c0 -8 4 -12 9 -9 5 3 6 10 3 15 -9 13 -12 11 -12 -6z"/>
<path d="M791 2574 c-1 -18 23 -34 38 -25 9 6 10 11 2 15 -6 4 -15 5 -20 2 -5
-4 -12 0 -14 6 -4 8 -6 9 -6 2z"/>
<path d="M873 2566 c-3 -5 -1 -6 5 -2 5 3 12 1 14 -5 2 -7 8 -6 17 4 11 14 9
16 -9 14 -12 -1 -24 -6 -27 -11z"/>
<path d="M36 2552 c-3 -5 1 -9 9 -9 8 0 12 4 9 9 -3 4 -7 8 -9 8 -2 0 -6 -4
-9 -8z"/>
<path d="M85 2550 c3 -5 8 -10 11 -10 2 0 4 5 4 10 0 6 -5 10 -11 10 -5 0 -7
-4 -4 -10z"/>
<path d="M178 2540 c-14 -15 -14 -19 -2 -24 8 -3 14 1 14 10 0 8 5 12 10 9 6
-3 10 1 10 9 0 21 -11 19 -32 -4z"/>
<path d="M500 2547 c0 -5 -11 -7 -24 -5 -18 4 -23 1 -19 -10 5 -12 2 -12 -18
-3 -21 11 -22 10 -7 -2 10 -8 14 -17 10 -21 -4 -4 -1 -6 7 -4 10 2 16 -6 17
-24 3 -25 1 -26 -23 -17 -15 5 -32 17 -39 27 -7 9 -16 14 -20 9 -4 -4 -2 -7 4
-7 7 0 12 -4 12 -9 0 -6 -9 -8 -21 -6 -13 3 -19 0 -16 -8 2 -7 -8 -20 -22 -29
-14 -10 -21 -18 -14 -18 6 0 14 4 18 10 3 5 12 7 21 3 8 -3 14 -2 13 3 -3 20
2 31 16 31 11 0 12 -4 4 -14 -8 -9 -8 -13 0 -13 19 0 26 5 23 14 -2 5 3 5 10
0 20 -16 43 -10 42 9 -1 10 5 17 17 17 21 0 26 -16 7 -22 -9 -3 -9 -6 0 -12 7
-4 12 -2 12 5 0 8 4 8 15 -1 8 -7 12 -17 8 -23 -3 -6 -1 -7 5 -3 7 4 12 2 12
-4 0 -6 5 -8 10 -5 6 3 10 2 10 -3 0 -5 9 -12 20 -15 11 -3 18 -1 14 4 -3 5 0
9 5 9 6 0 11 9 11 20 0 14 -7 20 -21 20 -14 0 -19 -5 -16 -14 4 -11 1 -13 -11
-9 -25 10 -52 36 -46 44 3 5 -6 11 -20 15 -30 7 -51 29 -37 38 5 4 15 -2 21
-11 7 -11 13 -14 16 -7 3 7 34 10 87 7 88 -3 112 1 102 17 -5 8 -11 7 -21 -1
-8 -7 -24 -8 -41 -4 -16 5 -40 7 -55 6 -16 -1 -28 2 -28 7 0 5 -11 12 -25 14
-14 3 -25 1 -25 -5z m24 -15 c2 -4 -4 -9 -15 -9 -11 -1 -17 2 -14 8 7 11 22
12 29 1z"/>
<path d="M650 2550 c-8 -5 -12 -12 -9 -15 4 -3 12 1 19 10 14 17 11 19 -10 5z"/>
<path d="M5 2540 c3 -5 8 -10 11 -10 2 0 4 5 4 10 0 6 -5 10 -11 10 -5 0 -7
-4 -4 -10z"/>
<path d="M230 2546 c0 -2 7 -6 15 -10 8 -3 15 -1 15 4 0 6 -7 10 -15 10 -8 0
-15 -2 -15 -4z"/>
<path d="M320 2529 c0 -5 -5 -7 -12 -3 -6 4 -8 3 -5 -4 4 -5 16 -8 27 -5 11 3
17 9 14 14 -7 12 -24 11 -24 -2z"/>
<path d="M790 2537 c0 -2 6 -10 14 -16 11 -9 16 -9 22 1 4 7 4 10 -1 6 -4 -4
-14 -3 -22 3 -7 6 -13 9 -13 6z"/>
<path d="M35 2520 c-9 -14 13 -22 33 -11 11 6 22 8 26 6 3 -3 4 -2 1 2 -8 10
-54 13 -60 3z"/>
<path d="M365 2520 c3 -5 8 -10 11 -10 2 0 4 5 4 10 0 6 -5 10 -11 10 -5 0 -7
-4 -4 -10z"/>
<path d="M710 2521 c0 -6 4 -13 10 -16 6 -3 7 1 4 9 -7 18 -14 21 -14 7z"/>
<path d="M410 2510 c0 -5 5 -10 11 -10 5 0 7 5 4 10 -3 6 -8 10 -11 10 -2 0
-4 -4 -4 -10z"/>
<path d="M106 2493 c-6 -14 -5 -15 5 -6 7 7 10 15 7 18 -3 3 -9 -2 -12 -12z"/>
<path d="M271 2494 c0 -11 3 -14 6 -6 3 7 2 16 -1 19 -3 4 -6 -2 -5 -13z"/>
<path d="M745 2500 c3 -5 8 -10 11 -10 2 0 4 5 4 10 0 6 -5 10 -11 10 -5 0 -7
-4 -4 -10z"/>
<path d="M2058 2495 c6 -11 21 -29 34 -40 22 -19 22 -19 -2 10 -40 48 -43 51
-32 30z"/>
<path d="M179 2483 c-13 -16 -12 -17 4 -4 9 7 17 15 17 17 0 8 -8 3 -21 -13z"/>
<path d="M813 2485 c0 -8 4 -12 9 -9 4 3 8 9 8 15 0 5 -4 9 -8 9 -5 0 -9 -7
-9 -15z"/>
<path d="M653 2473 c0 -9 4 -10 14 -2 7 6 13 12 13 14 0 1 -6 2 -13 2 -8 0
-14 -6 -14 -14z"/>
<path d="M700 2481 c0 -5 -3 -17 -7 -27 -4 -11 -2 -15 7 -12 15 5 22 48 8 48
-4 0 -8 -4 -8 -9z"/>
<path d="M240 2469 c0 -5 5 -7 10 -4 6 3 10 8 10 11 0 2 -4 4 -10 4 -5 0 -10
-5 -10 -11z"/>
<path d="M550 2475 c0 -5 5 -17 10 -25 5 -8 10 -10 10 -5 0 6 -5 17 -10 25 -5
8 -10 11 -10 5z"/>
<path d="M580 2469 c0 -5 5 -7 10 -4 6 3 10 8 10 11 0 2 -4 4 -10 4 -5 0 -10
-5 -10 -11z"/>
<path d="M984 2468 c-7 -11 18 -10 36 2 11 7 10 9 -8 7 -13 -1 -26 -5 -28 -9z"/>
<path d="M2663 2440 c0 -25 2 -35 4 -22 2 12 2 32 0 45 -2 12 -4 2 -4 -23z"/>
<path d="M31 2454 c0 -11 3 -14 6 -6 3 7 2 16 -1 19 -3 4 -6 -2 -5 -13z"/>
<path d="M150 2466 c0 -2 7 -9 15 -16 9 -7 15 -8 15 -2 0 5 -7 12 -15 16 -8 3
-15 4 -15 2z"/>
<path d="M328 2463 c7 -3 16 -2 19 1 4 3 -2 6 -13 5 -11 0 -14 -3 -6 -6z"/>
<path d="M741 2461 c-8 -5 -9 -11 -3 -15 5 -3 12 1 16 9 6 17 6 18 -13 6z"/>
<path d="M57 2453 c-4 -3 -7 -11 -7 -17 0 -6 5 -5 12 2 6 6 9 14 7 17 -3 3 -9
2 -12 -2z"/>
<path d="M885 2410 c0 -43 5 -49 25 -24 8 8 9 14 4 13 -19 -3 -28 2 -17 9 10
7 10 12 0 25 -10 15 -12 12 -12 -23z"/>
<path d="M2772 2430 c0 -14 2 -19 5 -12 2 6 2 18 0 25 -3 6 -5 1 -5 -13z"/>
<path d="M80 2436 c0 -2 7 -7 16 -10 8 -3 12 -2 9 4 -6 10 -25 14 -25 6z"/>
<path d="M727 2424 c2 -7 11 -10 19 -7 19 7 18 10 -5 16 -13 3 -18 1 -14 -9z"/>
<path d="M923 2425 c0 -8 4 -12 9 -9 5 3 6 10 3 15 -9 13 -12 11 -12 -6z"/>
<path d="M9 2410 c-6 -4 1 -7 15 -7 14 0 26 3 26 7 0 3 -7 7 -15 7 -8 0 -19
-4 -26 -7z"/>
<path d="M68 2413 c7 -3 16 -2 19 1 4 3 -2 6 -13 5 -11 0 -14 -3 -6 -6z"/>
<path d="M389 2403 c-11 -13 -11 -17 -1 -20 6 -3 9 -10 5 -16 -5 -8 -2 -8 9 0
8 7 18 10 21 7 3 -3 11 -3 17 1 8 5 6 13 -6 26 -21 23 -28 24 -45 2z m42 -10
c13 -16 12 -17 -3 -4 -10 7 -18 15 -18 17 0 8 8 3 21 -13z"/>
<path d="M210 2400 c0 -5 5 -10 11 -10 5 0 7 5 4 10 -3 6 -8 10 -11 10 -2 0
-4 -4 -4 -10z"/>
<path d="M630 2406 c0 -2 7 -9 15 -16 13 -11 14 -10 9 4 -5 14 -24 23 -24 12z"/>
<path d="M680 2390 c0 -5 5 -10 11 -10 5 0 7 5 4 10 -3 6 -8 10 -11 10 -2 0
-4 -4 -4 -10z"/>
<path d="M740 2391 c-8 -6 -17 -8 -20 -6 -4 2 -7 -2 -7 -10 0 -8 4 -12 9 -9 4
3 8 0 8 -5 0 -6 -5 -11 -11 -11 -5 0 -8 -4 -5 -9 4 -5 0 -12 -6 -14 -9 -4 -10
-6 -1 -6 6 -1 14 3 17 8 3 5 16 6 29 3 21 -5 21 -5 5 12 -21 21 -22 28 -6 44
14 14 9 15 -12 3z"/>
<path d="M22 2375 c4 -23 29 -27 36 -6 3 9 0 11 -8 6 -7 -4 -16 -2 -22 6 -7
11 -8 9 -6 -6z"/>
<path d="M503 2359 c-24 -9 -32 -21 -10 -16 6 1 11 -3 10 -9 -3 -15 25 -14 31
1 8 21 -8 33 -31 24z"/>
<path d="M591 2358 c-1 -20 14 -24 25 -6 4 6 3 8 -4 4 -5 -3 -13 0 -15 6 -3 8
-6 6 -6 -4z"/>
<path d="M1361 2354 c0 -11 3 -14 6 -6 3 7 2 16 -1 19 -3 4 -6 -2 -5 -13z"/>
<path d="M215 2350 c-3 -5 -2 -10 4 -10 5 0 13 5 16 10 3 6 2 10 -4 10 -5 0
-13 -4 -16 -10z"/>
<path d="M0 2340 c0 -5 5 -10 11 -10 5 0 7 5 4 10 -3 6 -8 10 -11 10 -2 0 -4
-4 -4 -10z"/>
<path d="M76 2342 c-3 -6 1 -13 10 -16 23 -9 28 -2 10 13 -8 7 -17 8 -20 3z"/>
<path d="M675 2340 c-3 -5 -1 -10 4 -10 6 0 11 5 11 10 0 6 -2 10 -4 10 -3 0
-8 -4 -11 -10z"/>
<path d="M250 2319 c0 -5 5 -7 10 -4 6 3 10 8 10 11 0 2 -4 4 -10 4 -5 0 -10
-5 -10 -11z"/>
<path d="M727 2316 c-4 -10 1 -12 14 -9 23 6 24 9 5 16 -8 3 -17 0 -19 -7z"/>
<path d="M0 2292 c0 -24 4 -30 15 -26 18 7 18 14 0 38 -14 19 -15 18 -15 -12z"/>
<path d="M170 2308 c0 -9 5 -20 10 -23 13 -8 13 5 0 25 -8 13 -10 13 -10 -2z"/>
<path d="M276 2289 c-14 -28 -14 -30 0 -18 21 17 37 49 25 49 -5 0 -16 -14
-25 -31z"/>
<path d="M595 2310 c-3 -5 -1 -10 4 -10 6 0 11 5 11 10 0 6 -2 10 -4 10 -3 0
-8 -4 -11 -10z"/>
<path d="M1360 2308 c0 -23 16 -39 33 -32 10 3 17 1 17 -5 0 -8 11 -10 35 -5
19 3 35 2 35 -3 0 -16 58 -14 74 3 17 17 21 34 8 34 -4 0 -13 -5 -19 -11 -9
-9 -18 -8 -38 5 -29 19 -81 18 -77 -1 3 -19 -13 -16 -33 7 -21 23 -35 26 -35
8z"/>
<path d="M316 2288 c3 -4 9 -8 15 -8 5 0 9 4 9 8 0 5 -7 9 -15 9 -8 0 -12 -4
-9 -9z"/>
<path d="M700 2281 c0 -7 -4 -10 -9 -7 -13 8 -45 -20 -37 -32 4 -7 17 -12 28
-12 12 0 18 3 15 6 -3 4 -2 15 4 26 6 11 8 22 5 26 -3 3 -6 0 -6 -7z"/>
<path d="M46 2253 c-7 -16 13 -38 24 -26 3 3 0 8 -7 10 -7 2 -9 11 -6 19 3 8
3 14 0 14 -3 0 -8 -8 -11 -17z"/>
<path d="M173 2256 c-24 -11 -30 -30 -13 -41 6 -3 7 1 4 9 -3 9 -1 16 5 16 7
0 15 -10 20 -22 5 -13 10 -17 14 -11 4 6 0 18 -8 26 -11 12 -12 16 -2 20 6 2
10 6 7 9 -3 2 -15 -1 -27 -6z"/>
<path d="M450 2253 c21 -12 21 -14 5 -10 -24 5 -48 -18 -50 -46 -2 -17 0 -18
9 -5 7 9 23 14 39 13 15 -2 25 1 21 6 -3 5 0 9 6 9 7 0 8 6 1 19 -6 10 -9 20
-6 22 2 2 -9 5 -23 6 l-27 1 25 -15z"/>
<path d="M620 2259 c0 -5 5 -7 10 -4 6 3 10 8 10 11 0 2 -4 4 -10 4 -5 0 -10
-5 -10 -11z"/>
<path d="M745 2250 c-3 -5 -2 -10 4 -10 5 0 13 5 16 10 3 6 2 10 -4 10 -5 0
-13 -4 -16 -10z"/>
<path d="M497 2239 c7 -7 15 -10 18 -7 3 3 -2 9 -12 12 -14 6 -15 5 -6 -5z"/>
<path d="M1360 2242 c0 -8 -7 -11 -18 -8 -25 8 -52 -23 -48 -56 3 -35 21 -55
70 -80 33 -17 49 -19 100 -13 34 4 79 9 100 11 43 4 71 23 48 31 -8 3 -43 20
-80 39 -36 19 -82 37 -101 40 -30 6 -33 8 -16 15 20 8 20 8 0 9 -11 2 -24 2
-29 1 -5 -1 -13 4 -17 11 -7 11 -9 11 -9 0z"/>
<path d="M2235 2227 c1 -12 3 -29 4 -37 1 -13 3 -13 10 0 6 8 7 18 4 24 -4 5
-1 6 6 2 7 -5 9 -15 6 -25 -10 -23 -9 -102 0 -131 5 -14 8 -34 7 -45 -1 -16 0
-15 9 5 7 14 12 62 12 107 0 55 4 80 11 76 6 -3 8 -3 4 1 -3 4 -10 8 -15 8 -4
0 -20 9 -34 19 -26 18 -26 18 -24 -4z m50 -68 c11 -17 -1 -21 -15 -4 -8 9 -8
15 -2 15 6 0 14 -5 17 -11z"/>
<path d="M120 2230 c-13 -8 -12 -10 3 -10 9 0 17 5 17 10 0 12 -1 12 -20 0z"/>
<path d="M216 2232 c-3 -6 -1 -14 5 -17 14 -9 20 -2 10 14 -6 8 -11 9 -15 3z"/>
<path d="M80 2220 c0 -5 5 -10 10 -10 6 0 10 5 10 10 0 6 -4 10 -10 10 -5 0
-10 -4 -10 -10z"/>
<path d="M547 2213 c-4 -3 -7 -11 -7 -17 0 -6 5 -5 12 2 6 6 9 14 7 17 -3 3
-9 2 -12 -2z"/>
<path d="M195 2181 c-12 -11 -3 -31 13 -30 10 0 12 3 5 6 -7 2 -13 9 -13 14 0
6 4 8 8 5 4 -2 14 -1 22 4 11 7 9 9 -8 7 -13 -1 -25 -3 -27 -6z"/>
<path d="M856 2164 c-12 -31 3 -34 22 -4 10 16 10 20 -2 20 -8 0 -17 -7 -20
-16z"/>
<path d="M426 2154 c-10 -25 1 -29 14 -5 6 12 7 21 1 21 -5 0 -12 -7 -15 -16z"/>
<path d="M540 2159 c0 -5 5 -7 10 -4 6 3 10 8 10 11 0 2 -4 4 -10 4 -5 0 -10
-5 -10 -11z"/>
<path d="M575 2160 c-8 -13 20 -24 40 -16 8 3 15 10 15 16 0 7 -7 7 -21 -1
-15 -8 -19 -8 -15 0 4 6 3 11 -3 11 -5 0 -13 -5 -16 -10z"/>
<path d="M115 2140 c-16 -17 -16 -20 -3 -15 9 4 19 13 22 21 7 19 2 18 -19 -6z"/>
<path d="M70 2140 c0 -5 5 -10 10 -10 6 0 10 5 10 10 0 6 -4 10 -10 10 -5 0
-10 -4 -10 -10z"/>
<path d="M306 2141 c-3 -4 6 -6 19 -3 14 2 25 6 25 8 0 8 -39 4 -44 -5z"/>
<path d="M463 2133 c0 -7 4 -13 8 -13 4 0 9 6 12 13 3 8 0 14 -7 14 -7 0 -13
-6 -13 -14z"/>
<path d="M155 2130 c-16 -7 -17 -9 -3 -9 9 -1 20 4 23 9 7 11 7 11 -20 0z"/>
<path d="M671 2124 c0 -11 3 -14 6 -6 3 7 2 16 -1 19 -3 4 -6 -2 -5 -13z"/>
<path d="M543 2121 c10 -4 18 -10 18 -14 -1 -4 1 -7 4 -7 3 0 9 0 13 0 5 0 9
6 9 13 0 6 -14 13 -31 14 -22 1 -25 -1 -13 -6z"/>
<path d="M340 2110 c-9 -6 -10 -10 -3 -10 6 0 15 5 18 10 8 12 4 12 -15 0z"/>
<path d="M530 2090 c0 -5 5 -10 11 -10 5 0 7 5 4 10 -3 6 -8 10 -11 10 -2 0
-4 -4 -4 -10z"/>
<path d="M291 2064 c0 -11 3 -14 6 -6 3 7 2 16 -1 19 -3 4 -6 -2 -5 -13z"/>
<path d="M575 2070 c-3 -5 -1 -10 4 -10 6 0 11 5 11 10 0 6 -2 10 -4 10 -3 0
-8 -4 -11 -10z"/>
<path d="M566 2033 c-6 -14 -5 -15 5 -6 7 7 10 15 7 18 -3 3 -9 -2 -12 -12z"/>
<path d="M380 2020 c0 -5 7 -10 16 -10 8 0 12 5 9 10 -3 6 -10 10 -16 10 -5 0
-9 -4 -9 -10z"/>
<path d="M620 2011 c0 -7 -4 -10 -9 -6 -5 3 -13 0 -17 -6 -4 -8 -3 -9 4 -5 7
4 12 1 12 -6 0 -8 5 -6 11 5 6 10 8 21 5 24 -3 4 -6 1 -6 -6z"/>
<path d="M40 2000 c0 -5 5 -10 11 -10 5 0 7 5 4 10 -3 6 -8 10 -11 10 -2 0 -4
-4 -4 -10z"/>
<path d="M667 2003 c20 -8 -4 -43 -25 -37 -14 5 -14 4 2 -6 15 -10 20 -9 27 1
7 11 9 11 9 -2 0 -9 -10 -21 -22 -28 -22 -11 -22 -11 -1 -6 12 3 24 1 28 -5 3
-5 0 -10 -7 -10 -10 0 -10 -2 1 -9 11 -7 9 -10 -9 -16 -18 -6 -20 -9 -9 -16
16 -10 35 -12 26 -2 -4 3 -2 12 4 20 6 7 8 13 5 13 -4 0 2 9 12 21 25 26 18
62 -9 54 -11 -4 -19 -2 -19 4 0 6 6 11 13 11 8 0 7 4 -3 10 -8 5 -19 9 -25 9
-5 0 -4 -3 2 -6z m47 -65 c-3 -4 -12 -8 -20 -8 -12 0 -12 4 -2 20 8 13 15 16
19 8 4 -7 5 -16 3 -20z"/>
<path d="M486 1985 c13 -10 15 -14 5 -15 -8 0 -12 -3 -8 -6 3 -3 11 -3 17 1
13 8 -5 35 -23 35 -6 0 -2 -7 9 -15z"/>
<path d="M385 1980 c3 -5 8 -10 11 -10 2 0 4 5 4 10 0 6 -5 10 -11 10 -5 0 -7
-4 -4 -10z"/>
<path d="M2172 1958 c0 -18 -14 -58 -31 -88 -37 -66 -39 -81 -8 -52 12 12 24
33 25 48 1 15 6 32 12 39 12 15 21 85 10 85 -4 0 -8 -15 -8 -32z"/>
<path d="M566 1971 c-4 -5 -2 -12 3 -15 5 -4 12 -2 15 3 4 5 2 12 -3 15 -5 4
-12 2 -15 -3z"/>
<path d="M809 1965 c-3 -28 -4 -33 -11 -41 -5 -4 -8 -12 -8 -18 0 -16 26 26
33 52 3 12 1 22 -4 22 -5 0 -10 -7 -10 -15z"/>
<path d="M306 1957 c3 -10 9 -15 12 -12 3 3 0 11 -7 18 -10 9 -11 8 -5 -6z"/>
<path d="M785 1960 c-4 -6 -10 -8 -14 -5 -5 2 -18 -6 -31 -20 -22 -23 -22 -24
-1 -18 11 3 21 9 21 14 0 5 6 9 14 9 8 0 16 7 20 15 6 17 0 20 -9 5z"/>
<path d="M2613 1948 c-2 -16 1 -18 10 -9 7 7 8 14 1 21 -6 6 -10 2 -11 -12z"/>
<path d="M410 1952 c0 -13 23 -32 39 -32 8 0 11 3 8 7 -4 3 -2 12 4 20 9 10 5
13 -20 13 -17 0 -31 -4 -31 -8z"/>
<path d="M510 1950 c0 -5 5 -10 11 -10 5 0 7 5 4 10 -3 6 -8 10 -11 10 -2 0
-4 -4 -4 -10z"/>
<path d="M145 1940 c-19 -8 -19 -9 2 -9 12 -1 25 4 28 9 7 12 -2 12 -30 0z"/>
<path d="M354 1935 c-12 -9 -14 -14 -6 -15 7 0 20 7 28 15 20 19 4 20 -22 0z"/>
<path d="M2141 1923 c-19 -38 -42 -98 -32 -88 11 12 52 105 46 105 -2 0 -8 -8
-14 -17z"/>
<path d="M238 1909 c-12 -12 -13 -19 -5 -22 7 -2 17 3 23 11 9 12 14 13 37 1
14 -8 26 -17 26 -21 1 -5 1 -11 1 -15 0 -5 4 -2 9 6 11 17 -3 32 -44 46 -25 9
-33 8 -47 -6z"/>
<path d="M135 1910 c3 -5 13 -10 21 -10 8 0 12 5 9 10 -3 6 -13 10 -21 10 -8
0 -12 -4 -9 -10z"/>
<path d="M48 1898 c9 -9 15 -9 24 0 9 9 7 12 -12 12 -19 0 -21 -3 -12 -12z"/>
<path d="M260 1890 c0 -5 5 -10 11 -10 5 0 8 -4 4 -9 -3 -5 -1 -12 4 -15 5 -3
11 3 14 14 3 11 1 18 -4 14 -5 -3 -9 0 -9 5 0 6 -4 11 -10 11 -5 0 -10 -4 -10
-10z"/>
<path d="M425 1890 c-3 -5 -1 -10 4 -10 6 0 11 5 11 10 0 6 -2 10 -4 10 -3 0
-8 -4 -11 -10z"/>
<path d="M485 1891 c-2 -5 6 -16 20 -25 14 -9 25 -12 25 -6 0 5 -5 10 -11 10
-5 0 -8 4 -5 9 3 5 -1 11 -9 15 -8 3 -17 1 -20 -3z"/>
<path d="M738 1893 c7 -3 16 -2 19 1 4 3 -2 6 -13 5 -11 0 -14 -3 -6 -6z"/>
<path d="M835 1890 c-4 -7 -3 -15 1 -19 5 -3 15 -17 21 -31 l12 -25 0 23 c1
19 5 22 21 17 17 -5 20 -2 18 20 -2 20 -5 23 -13 13 -13 -17 -33 -17 -44 1 -7
10 -10 10 -16 1z"/>
<path d="M0 1870 c0 -5 5 -10 10 -10 6 0 10 5 10 10 0 6 -4 10 -10 10 -5 0
-10 -4 -10 -10z"/>
<path d="M349 1868 c-11 -8 -10 -9 4 -4 12 4 17 0 17 -12 0 -13 2 -14 9 -3 5
7 14 10 20 7 6 -4 11 -1 11 7 0 17 -41 20 -61 5z"/>
<path d="M713 1863 c4 -20 1 -21 -34 -18 -24 2 -42 -2 -50 -11 -10 -13 -14
-12 -29 1 -15 13 -20 14 -26 3 -4 -7 -4 -10 1 -6 4 4 14 0 22 -8 14 -13 17
-13 34 2 20 18 46 10 30 -10 -8 -9 -7 -13 4 -13 8 0 12 4 10 8 -3 4 9 12 25
18 18 6 30 6 30 0 0 -5 -7 -9 -15 -9 -18 0 -20 -16 -3 -26 7 -4 8 -3 4 4 -4 7
-1 12 8 12 19 0 21 -11 5 -27 -18 -18 -3 -40 32 -48 23 -5 28 -10 18 -16 -11
-7 -10 -9 4 -9 9 0 17 4 17 9 0 5 9 7 20 4 24 -6 26 6 5 33 -8 10 -14 13 -13
5 2 -7 -7 -15 -21 -17 -17 -3 -22 0 -18 10 3 7 0 19 -6 25 -6 6 -12 20 -14 32
-2 16 1 20 12 15 10 -3 13 -2 10 5 -4 5 -12 8 -18 6 -7 -2 -20 8 -30 22 -17
23 -18 24 -14 4z m51 -104 c-7 -13 -34 -11 -34 2 0 5 5 7 12 3 8 -5 9 -2 4 11
-5 15 -4 16 9 5 8 -7 12 -16 9 -21z"/>
<path d="M2201 1864 c0 -11 3 -14 6 -6 3 7 2 16 -1 19 -3 4 -6 -2 -5 -13z"/>
<path d="M2181 1834 c0 -11 3 -14 6 -6 3 7 2 16 -1 19 -3 4 -6 -2 -5 -13z"/>
<path d="M425 1820 c-4 -6 -11 -7 -17 -4 -7 4 -8 2 -4 -5 6 -9 11 -9 22 0 14
11 18 19 10 19 -3 0 -8 -5 -11 -10z"/>
<path d="M490 1820 c0 -5 5 -10 11 -10 5 0 7 5 4 10 -3 6 -8 10 -11 10 -2 0
-4 -4 -4 -10z"/>
<path d="M587 1799 c7 -7 15 -10 18 -7 3 3 -2 9 -12 12 -14 6 -15 5 -6 -5z"/>
<path d="M2231 1798 c0 -9 -4 -25 -7 -35 -5 -17 -5 -17 6 0 6 10 9 25 7 35 -4
15 -5 15 -6 0z"/>
<path d="M690 1773 c0 -7 -7 -10 -17 -7 -16 5 -16 4 -2 -8 9 -7 14 -19 12 -25
-5 -15 23 -18 32 -3 4 6 -1 7 -12 3 -15 -6 -16 -4 -6 8 8 9 9 20 3 29 -6 10
-10 11 -10 3z"/>
<path d="M2602 1745 c0 -16 2 -22 5 -12 2 9 2 23 0 30 -3 6 -5 -1 -5 -18z"/>
<path d="M515 1740 c-3 -5 -1 -10 4 -10 6 0 11 5 11 10 0 6 -2 10 -4 10 -3 0
-8 -4 -11 -10z"/>
<path d="M585 1740 c-3 -5 -1 -10 4 -10 6 0 11 5 11 10 0 6 -2 10 -4 10 -3 0
-8 -4 -11 -10z"/>
<path d="M550 1726 c0 -2 8 -10 18 -17 15 -13 16 -12 3 4 -13 16 -21 21 -21
13z"/>
<path d="M594 1712 c4 -7 2 -21 -5 -30 -12 -15 -11 -15 6 0 16 15 17 20 6 30
-11 11 -13 10 -7 0z"/>
<path d="M2251 1704 c0 -11 3 -14 6 -6 3 7 2 16 -1 19 -3 4 -6 -2 -5 -13z"/>
<path d="M690 1701 c-8 -6 -19 -7 -25 -4 -5 4 -7 2 -2 -2 4 -5 0 -17 -9 -27
-14 -15 -20 -16 -32 -5 -13 10 -14 9 -7 -3 13 -20 13 -33 0 -43 -6 -5 -4 -7 5
-4 8 2 14 9 13 15 -2 6 16 27 39 46 41 35 48 45 18 27z"/>
<path d="M456 1678 c3 -5 10 -6 15 -3 13 9 11 12 -6 12 -8 0 -12 -4 -9 -9z"/>
<path d="M520 1665 c-7 -9 -8 -15 -2 -15 5 0 12 7 16 15 3 8 4 15 2 15 -2 0
-9 -7 -16 -15z"/>
<path d="M2174 1666 c-3 -8 -4 -23 -2 -33 3 -11 6 -6 9 15 6 34 2 42 -7 18z"/>
<path d="M548 1653 c6 -2 9 -10 6 -15 -4 -7 -2 -8 5 -4 13 9 5 26 -12 25 -9 0
-8 -2 1 -6z"/>
<path d="M595 1648 c4 -11 0 -18 -14 -23 -25 -8 -28 -24 -5 -21 23 4 39 35 24
49 -8 9 -10 8 -5 -5z"/>
<path d="M669 1658 c-5 -18 -6 -38 -1 -34 7 8 12 36 6 36 -2 0 -4 -1 -5 -2z"/>
<path d="M40 1620 c6 -11 13 -20 16 -20 2 0 0 9 -6 20 -6 11 -13 20 -16 20 -2
0 0 -9 6 -20z"/>
<path d="M360 1626 c0 -4 7 -14 15 -22 8 -9 15 -11 15 -6 0 5 -7 15 -15 22 -8
7 -15 9 -15 6z"/>
<path d="M100 1602 c0 -5 7 -9 15 -9 8 0 12 4 9 9 -3 4 -9 8 -15 8 -5 0 -9 -4
-9 -8z"/>
<path d="M323 1595 c0 -8 4 -15 9 -15 4 0 8 4 8 9 0 6 -4 12 -8 15 -5 3 -9 -1
-9 -9z"/>
<path d="M665 1600 c-3 -5 -2 -10 4 -10 5 0 13 5 16 10 3 6 2 10 -4 10 -5 0
-13 -4 -16 -10z"/>
<path d="M230 1590 c0 -5 7 -10 16 -10 9 0 12 -5 8 -12 -4 -7 -3 -8 4 -4 8 5
11 -2 8 -23 -2 -17 -1 -30 3 -29 3 0 9 -1 14 -2 4 -1 13 -3 20 -4 6 -1 11 -9
11 -19 -2 -22 3 -22 16 2 11 21 -2 72 -14 53 -3 -6 -2 -13 4 -17 5 -3 10 -11
10 -17 0 -7 -4 -7 -13 1 -8 6 -16 8 -19 5 -3 -2 -8 2 -12 11 -3 9 -2 13 4 10
6 -4 9 3 7 16 -5 28 -67 65 -67 39z"/>
<path d="M560 1580 c19 -13 30 -13 30 0 0 6 -10 10 -22 10 -19 0 -20 -2 -8
-10z"/>
<path d="M85 1559 c-4 -6 -4 -13 -1 -16 3 -4 6 -1 6 6 0 8 7 11 15 7 8 -3 15
-1 15 4 0 13 -27 13 -35 -1z"/>
<path d="M135 1540 c-3 -5 1 -10 9 -10 9 0 16 5 16 10 0 6 -4 10 -9 10 -6 0
-13 -4 -16 -10z"/>
<path d="M201 1524 c0 -11 3 -14 6 -6 3 7 2 16 -1 19 -3 4 -6 -2 -5 -13z"/>
<path d="M225 1530 c-3 -6 1 -7 9 -4 18 7 21 14 7 14 -6 0 -13 -4 -16 -10z"/>
<path d="M100 1520 c-9 -6 -10 -10 -3 -10 6 0 15 5 18 10 8 12 4 12 -15 0z"/>
<path d="M168 1513 c7 -3 16 -2 19 1 4 3 -2 6 -13 5 -11 0 -14 -3 -6 -6z"/>
<path d="M230 1510 c-9 -6 -10 -10 -3 -10 6 0 15 5 18 10 8 12 4 12 -15 0z"/>
<path d="M255 1490 c3 -5 8 -10 11 -10 2 0 4 5 4 10 0 6 -5 10 -11 10 -5 0 -7
-4 -4 -10z"/>
<path d="M2239 1443 c-1 -21 -2 -50 -3 -65 -1 -15 1 -25 5 -23 7 5 12 125 4
125 -3 0 -6 -17 -6 -37z"/>
<path d="M2587 1453 c-30 -8 -10 -19 27 -15 20 2 33 8 30 13 -5 9 -26 10 -57
2z"/>
<path d="M216 1422 c-3 -4 4 -9 15 -9 23 -2 25 3 4 10 -8 4 -16 3 -19 -1z"/>
<path d="M276 1403 c-27 -22 -27 -23 -4 -20 17 1 22 -3 20 -15 -1 -9 2 -19 8
-23 7 -4 10 5 8 23 -1 17 3 36 10 44 20 24 -11 18 -42 -9z"/>
<path d="M2597 1423 c-12 -11 -8 -23 7 -23 7 0 19 7 26 15 10 12 9 15 -7 15
-11 0 -23 -3 -26 -7z"/>
<path d="M2550 1403 c0 -13 5 -23 10 -23 13 0 13 11 0 30 -8 12 -10 11 -10 -7z"/>
<path d="M350 1387 c-19 -16 -22 -47 -4 -40 8 3 11 9 8 14 -3 6 0 16 6 24 15
18 10 19 -10 2z"/>
<path d="M449 1383 c-13 -17 -13 -17 4 -4 17 13 18 12 12 -11 -4 -17 -2 -25 8
-25 15 0 16 32 0 48 -7 7 -14 4 -24 -8z"/>
<path d="M375 1380 c-8 -13 5 -13 25 0 13 8 13 10 -2 10 -9 0 -20 -4 -23 -10z"/>
<path d="M2491 1374 c0 -11 3 -14 6 -6 3 7 2 16 -1 19 -3 4 -6 -2 -5 -13z"/>
<path d="M216 1325 c4 -8 8 -15 10 -15 2 0 4 7 4 15 0 8 -4 15 -10 15 -5 0 -7
-7 -4 -15z"/>
<path d="M246 1323 c-6 -14 -5 -15 5 -6 7 7 10 15 7 18 -3 3 -9 -2 -12 -12z"/>
<path d="M320 1320 c0 -13 11 -13 30 0 12 8 11 10 -7 10 -13 0 -23 -4 -23 -10z"/>
<path d="M19 1273 c-13 -15 -17 -22 -8 -15 9 6 19 10 22 7 4 -3 5 -2 2 2 -3 3
0 12 6 20 21 25 3 13 -22 -14z"/>
<path d="M108 1293 c7 -3 16 -2 19 1 4 3 -2 6 -13 5 -11 0 -14 -3 -6 -6z"/>
<path d="M300 1290 c0 -5 5 -10 10 -10 6 0 10 5 10 10 0 6 -4 10 -10 10 -5 0
-10 -4 -10 -10z"/>
<path d="M339 1298 c-7 -26 -3 -45 8 -41 15 6 17 29 3 38 -5 3 -10 5 -11 3z"/>
<path d="M450 1290 c0 -7 -7 -10 -15 -6 -9 3 -19 -3 -25 -14 -6 -11 -14 -19
-18 -19 -4 1 -16 1 -27 0 -16 -1 -17 -3 -6 -10 8 -5 11 -16 8 -24 -7 -19 17
-29 33 -14 9 9 11 8 8 -8 -2 -11 -10 -19 -17 -17 -7 1 -9 -2 -6 -9 4 -6 16 -9
26 -6 11 3 17 2 15 -2 -3 -4 -1 -13 4 -21 8 -13 13 -12 31 6 14 15 17 24 10
29 -6 3 -10 1 -9 -6 5 -21 -17 -20 -30 2 -8 12 -9 18 -4 15 6 -3 13 1 16 10 3
8 2 12 -3 9 -5 -3 -13 0 -17 7 -4 7 -3 10 1 5 5 -4 17 0 27 10 19 17 25 39 7
27 -8 -5 -8 -1 0 14 7 14 8 23 1 27 -5 3 -10 1 -10 -5z m-20 -35 c0 -8 -7 -15
-16 -15 -8 0 -12 -4 -9 -10 3 -5 -1 -10 -9 -10 -22 0 -20 8 7 31 27 23 27 23
27 4z"/>
<path d="M70 1280 c-12 -8 -10 -10 8 -10 13 0 20 4 17 10 -7 12 -6 12 -25 0z"/>
<path d="M370 1280 c0 -5 4 -10 9 -10 6 0 13 5 16 10 3 6 -1 10 -9 10 -9 0
-16 -4 -16 -10z"/>
<path d="M255 1269 c-4 -6 -4 -13 -1 -16 3 -4 6 -1 6 5 0 6 8 13 18 15 15 4
15 5 0 6 -9 0 -20 -4 -23 -10z"/>
<path d="M2275 1270 c-4 -6 1 -7 11 -3 14 5 15 3 5 -18 -11 -23 -11 -23 3 -5
9 11 16 23 16 28 0 11 -28 10 -35 -2z"/>
<path d="M194 1262 c3 -5 0 -13 -6 -15 -9 -4 -10 -6 -1 -6 17 -1 25 16 12 25
-7 4 -9 3 -5 -4z"/>
<path d="M83 1239 c1 -14 4 -15 14 -7 19 15 16 -2 -4 -26 l-17 -21 22 21 c13
12 20 27 17 36 -8 21 -34 19 -32 -3z"/>
<path d="M150 1240 c-9 -6 -10 -10 -3 -10 6 0 15 5 18 10 8 12 4 12 -15 0z"/>
<path d="M25 1231 c-3 -6 -11 -9 -16 -6 -5 4 -9 1 -9 -4 0 -13 10 -14 30 -1 8
5 12 12 8 15 -3 4 -9 1 -13 -4z"/>
<path d="M570 1233 c0 -10 28 -32 34 -26 11 11 6 21 -14 26 -11 3 -20 3 -20 0z"/>
<path d="M2487 1233 c-4 -3 -7 -14 -7 -24 0 -10 -5 -21 -11 -25 -8 -4 -9 1 -5
17 3 13 3 18 0 11 -3 -6 -11 -9 -16 -6 -7 5 -8 2 -4 -5 5 -7 1 -20 -7 -29 -23
-27 -27 -50 -12 -62 8 -7 12 -16 9 -21 -3 -5 5 -9 17 -9 16 0 20 -5 17 -18 -3
-10 1 -26 8 -36 12 -16 13 -16 25 6 11 21 11 22 -4 9 -17 -13 -25 -2 -9 13 4
4 7 13 7 19 0 5 6 12 13 15 7 2 11 0 10 -5 -2 -4 7 -18 20 -30 12 -13 22 -19
22 -14 0 6 -10 17 -22 25 -13 10 -17 16 -9 16 11 0 9 5 -4 20 -18 20 -17 20
11 20 17 0 43 12 63 29 l34 28 -34 -5 c-32 -4 -33 -3 -14 11 10 8 25 13 31 10
7 -2 15 1 20 8 5 9 2 10 -9 6 -9 -3 -19 -2 -22 4 -4 5 -11 7 -16 4 -5 -4 -9
-2 -9 3 0 6 -15 9 -34 8 -19 -1 -32 2 -30 6 6 10 -20 11 -29 1z m80 -99 c-3
-3 -12 -4 -19 -1 -8 3 -5 6 6 6 11 1 17 -2 13 -5z"/>
<path d="M286 1209 c3 -6 13 -8 21 -4 13 4 14 3 3 -10 -9 -11 -9 -15 -1 -15 7
0 9 -5 6 -11 -4 -6 -13 -8 -21 -5 -8 3 -17 -1 -20 -9 -4 -8 -10 -12 -15 -9 -5
3 -23 2 -41 -1 -22 -5 -27 -9 -17 -16 20 -13 31 -11 23 4 -4 6 2 3 13 -8 11
-11 16 -23 11 -26 -5 -3 -2 -9 7 -12 9 -4 13 -3 10 3 -3 6 -1 10 6 10 7 0 4 7
-7 15 -10 8 -14 15 -7 15 7 0 21 -10 33 -22 11 -12 23 -18 27 -15 3 4 1 7 -5
7 -7 0 -12 5 -12 10 0 21 30 9 36 -14 4 -17 11 -22 25 -19 11 3 22 10 25 15 9
14 -15 27 -35 21 -10 -4 -9 0 4 10 13 10 22 12 26 5 4 -7 9 -6 14 2 6 9 10 9
17 -1 8 -11 9 -11 5 1 -2 9 -14 14 -28 13 -43 -4 -76 -10 -85 -16 -6 -3 -16
-2 -24 4 -11 6 -11 9 -2 10 6 1 17 2 22 3 6 0 14 7 19 14 7 11 9 10 14 -3 6
-13 9 -14 21 -3 16 15 10 32 -10 24 -7 -3 -16 -1 -19 4 -4 6 1 10 10 10 14 0
14 2 3 13 -16 15 -61 20 -52 6z"/>
<path d="M155 1200 c-4 -6 -11 -7 -17 -4 -7 4 -8 2 -4 -5 6 -8 12 -9 20 -2 7
6 17 7 21 3 5 -4 5 -1 1 6 -9 15 -13 15 -21 2z"/>
<path d="M256 1201 c-3 -5 3 -11 15 -14 16 -4 18 -3 8 9 -13 16 -16 17 -23 5z"/>
<path d="M2321 1194 c0 -11 3 -14 6 -6 3 7 2 16 -1 19 -3 4 -6 -2 -5 -13z"/>
<path d="M20 1186 c0 -2 8 -10 18 -17 15 -13 16 -12 3 4 -13 16 -21 21 -21 13z"/>
<path d="M61 1164 c0 -11 3 -14 6 -6 3 7 2 16 -1 19 -3 4 -6 -2 -5 -13z"/>
<path d="M225 1170 c-3 -6 1 -7 9 -4 18 7 21 14 7 14 -6 0 -13 -4 -16 -10z"/>
<path d="M495 1160 c-3 -6 1 -7 9 -4 18 7 21 14 7 14 -6 0 -13 -4 -16 -10z"/>
<path d="M540 1148 c0 -9 5 -20 10 -23 13 -8 13 5 0 25 -8 13 -10 13 -10 -2z"/>
<path d="M2370 1134 c0 -8 -4 -13 -8 -10 -4 2 -14 -5 -21 -17 -8 -12 -10 -19
-6 -15 5 4 13 4 19 -1 17 -13 57 5 50 24 -3 8 -10 15 -16 15 -5 0 -6 5 -3 10
3 6 1 10 -4 10 -6 0 -11 -7 -11 -16z"/>
<path d="M165 1120 c3 -5 11 -10 16 -10 6 0 7 5 4 10 -3 6 -11 10 -16 10 -6 0
-7 -4 -4 -10z"/>
<path d="M425 1110 c-4 -6 -11 -7 -17 -4 -7 4 -8 2 -4 -4 10 -16 23 -15 30 3
6 17 0 20 -9 5z"/>
<path d="M450 1100 c-11 -11 -25 -20 -32 -20 -6 0 -3 -6 7 -14 18 -13 18 -14
-8 -9 -15 3 -25 9 -22 13 2 4 -7 5 -20 2 -30 -5 -41 -20 -26 -35 7 -7 12 -6
17 6 3 9 10 17 16 17 5 0 6 -5 2 -11 -4 -8 1 -9 17 -5 21 6 21 5 6 -4 -9 -6
-15 -15 -12 -21 4 -5 1 -9 -4 -9 -6 0 -11 7 -11 16 0 14 -3 14 -15 4 -13 -11
-13 -15 -3 -23 9 -6 8 -7 -5 -3 -10 3 -23 6 -28 6 -6 0 -7 5 -4 10 6 10 0 10
-65 -4 -8 -2 -19 -1 -25 2 -5 3 -29 5 -52 5 -24 -1 -41 3 -37 8 3 5 0 9 -5 9
-6 0 -11 -6 -11 -12 0 -9 -4 -8 -10 2 -6 9 -10 11 -10 3 0 -7 -7 -10 -15 -7
-8 4 -13 9 -10 14 2 4 -8 5 -23 3 -15 -2 -35 -4 -44 -4 -16 0 -18 -10 -18 -76
0 -67 2 -74 18 -69 15 5 15 4 2 -6 -8 -7 -16 -24 -17 -38 -1 -14 1 -19 3 -12
3 6 11 9 17 5 6 -4 8 0 4 10 -3 9 -2 19 3 22 6 4 10 1 10 -6 0 -8 3 -9 14 0
10 9 17 7 27 -6 13 -16 12 -17 -4 -4 -15 12 -17 12 -11 -3 3 -9 15 -16 25 -16
20 0 22 -19 4 -33 -6 -5 -4 -7 5 -4 8 2 14 10 12 17 -2 7 5 10 20 6 13 -3 17
-3 11 0 -7 3 -13 13 -13 22 0 12 3 13 8 5 5 -8 13 -9 22 -3 23 15 36 12 16 -3
-9 -7 -16 -19 -14 -27 2 -10 -4 -14 -17 -12 -16 2 -17 1 -5 -7 8 -5 18 -7 22
-5 12 8 9 -11 -4 -24 -9 -9 -9 -12 0 -12 6 0 14 11 18 25 6 25 28 30 30 7 3
-23 4 -24 21 -11 9 8 14 9 10 3 -4 -7 0 -17 9 -24 8 -7 13 -18 11 -24 -3 -6 3
-18 11 -26 14 -13 15 -12 10 1 -3 9 -2 22 3 30 6 10 9 7 9 -13 0 -28 16 -46
22 -26 2 6 10 8 16 4 20 -12 4 -25 -25 -20 -23 4 -25 3 -13 -10 7 -9 16 -14
20 -11 18 11 28 -20 15 -45 -8 -14 -14 -21 -15 -17 0 5 5 17 10 28 13 24 -11
27 -30 4 -7 -8 -17 -12 -23 -8 -6 4 -7 1 -3 -6 5 -7 15 -10 23 -7 8 3 11 1 8
-4 -3 -6 -16 -10 -27 -10 -12 0 -18 3 -15 7 4 3 -1 12 -11 20 -9 8 -11 11 -3
7 9 -4 19 0 28 11 7 11 13 13 13 6 0 -7 5 -9 10 -6 23 14 -12 35 -51 32 -29
-3 -36 0 -28 9 7 8 7 14 0 19 -7 4 -7 12 1 25 7 10 16 16 22 13 5 -3 6 -1 2 6
-4 6 -12 9 -17 5 -5 -3 -16 0 -24 6 -12 10 -15 10 -15 0 0 -8 -8 -10 -25 -6
-14 4 -25 2 -25 -3 0 -13 47 -20 58 -9 6 6 12 6 17 -1 3 -7 1 -10 -6 -9 -7 2
-14 -3 -15 -9 -1 -7 -2 -18 -3 -24 0 -5 -7 -7 -13 -3 -9 5 -9 2 1 -9 12 -15
11 -17 -3 -17 -9 0 -16 -4 -16 -10 0 -5 13 -8 30 -6 16 2 27 -1 24 -6 -3 -5
-12 -7 -19 -4 -7 2 -18 -1 -24 -7 -8 -8 -11 -8 -11 1 0 7 -10 17 -22 22 -19 7
-20 9 -4 9 11 1 16 6 13 15 -3 8 -1 16 5 18 14 5 1 28 -15 28 -7 0 -6 -4 3
-10 14 -9 7 -14 -13 -11 -5 1 -6 -3 -3 -8 3 -5 -1 -14 -8 -20 -10 -8 -16 -9
-21 -1 -3 5 -1 10 6 10 9 0 9 3 0 14 -15 17 -51 9 -51 -12 0 -12 4 -12 22 4
21 18 21 18 15 0 -4 -10 -2 -24 4 -32 8 -10 3 -15 -23 -23 -27 -9 -28 -10 -6
-7 24 3 26 1 17 -15 -12 -23 -18 -23 -46 -4 l-22 16 1 -105 1 -105 31 -4 31
-4 -32 -1 c-43 -2 -43 -20 -1 -25 l33 -4 -32 -1 c-40 -2 -44 -19 -6 -25 l28
-4 -27 -2 c-27 -1 -28 -3 -28 -56 l0 -55 48 -2 47 -1 -50 -6 c-44 -5 -47 -7
-25 -14 l25 -9 -25 -7 -25 -8 30 -5 30 -5 -29 -2 c-28 -1 -29 -2 -10 -16 17
-13 17 -14 2 -15 -15 0 -18 -9 -18 -55 0 -45 3 -55 18 -56 14 0 14 -2 -3 -9
-13 -6 -15 -9 -5 -9 11 -1 12 -3 2 -9 -7 -5 65 -9 161 -11 l173 -2 0 56 c1 37
9 74 25 107 23 49 23 50 4 61 -19 10 -19 10 0 18 16 6 17 8 3 8 -12 1 -16 9
-14 29 1 15 4 32 7 37 3 6 7 29 8 52 2 35 0 41 -16 39 -10 -2 -12 -1 -5 1 6 3
12 8 13 11 0 4 2 21 4 37 1 17 7 43 14 58 6 15 13 53 17 85 3 31 16 85 30 119
13 34 26 79 28 101 2 21 18 66 35 100 19 38 27 63 20 67 -5 4 -16 2 -23 -4 -9
-7 -16 -7 -26 2 -10 10 -11 9 -5 -3 4 -8 -2 -5 -15 6 -19 19 -21 24 -9 45 7
13 13 31 14 40 0 9 6 23 14 32 19 24 5 21 -19 -3z m-188 -153 c15 -1 25 -4 22
-8 -3 -6 -35 -6 -96 -1 -10 1 -18 7 -18 13 0 7 11 8 33 3 17 -4 44 -7 59 -7z
m-152 -92 c0 -5 -5 -3 -10 5 -5 8 -10 20 -10 25 0 6 5 3 10 -5 5 -8 10 -19 10
-25z m354 21 c-3 -9 -12 -12 -22 -9 -15 6 -9 11 25 22 1 1 0 -5 -3 -13z m-242
-38 c-16 -16 -15 -31 2 -25 8 3 20 -2 27 -11 11 -14 11 -15 0 -5 -7 6 -19 9
-26 7 -19 -8 -29 14 -15 31 7 8 15 15 18 15 3 0 1 -5 -6 -12z m-32 -8 c0 -5
-5 -10 -11 -10 -5 0 -7 5 -4 10 3 6 8 10 11 10 2 0 4 -4 4 -10z m113 -29 c12
7 19 8 14 4 -4 -5 1 -17 10 -27 16 -18 16 -18 -3 -12 -17 7 -17 6 -5 -9 7 -9
18 -14 24 -10 6 3 7 1 3 -6 -4 -6 -2 -20 5 -29 11 -14 10 -13 -8 1 -12 11 -26
16 -31 13 -6 -3 -9 2 -8 11 4 22 -14 35 -30 22 -8 -7 -14 -6 -19 1 -3 5 0 10
8 10 10 0 14 8 11 23 -2 12 -2 16 2 10 4 -10 11 -10 27 -2z m-63 -141 c0 -5
-4 -10 -10 -10 -5 0 -10 5 -10 10 0 6 5 10 10 10 6 0 10 -4 10 -10z m-47 -66
c-23 -17 -30 -17 -36 -1 -3 8 5 13 25 14 26 1 27 -1 11 -13z m-78 -4 c3 -6 -1
-7 -9 -4 -18 7 -21 14 -7 14 6 0 13 -4 16 -10z m135 -95 c10 -1 15 -14 15 -38
l1 -36 -77 -3 c-43 -2 -75 0 -72 5 2 4 0 7 -4 7 -5 0 -7 18 -5 40 l4 41 62 -7
c33 -4 68 -8 76 -9z m120 -119 c0 -2 -7 -6 -15 -10 -8 -3 -15 -1 -15 4 0 6 7
10 15 10 8 0 15 -2 15 -4z m-110 -53 c2 -2 -2 -8 -10 -13 -10 -6 -11 -10 -3
-10 7 0 11 -12 10 -30 l-2 -31 -75 3 -75 3 -3 47 -3 48 78 -6 c43 -4 80 -9 83
-11z m97 11 c-3 -3 -12 -4 -19 -1 -8 3 -5 6 6 6 11 1 17 -2 13 -5z m-17 -120
c0 -2 -12 -4 -27 -4 -21 0 -24 3 -14 9 13 8 41 5 41 -5z m-263 -10 c-3 -3 -12
-4 -19 -1 -8 3 -5 6 6 6 11 1 17 -2 13 -5z m40 0 c-3 -3 -12 -4 -19 -1 -8 3
-5 6 6 6 11 1 17 -2 13 -5z m140 -10 c-3 -3 -12 -4 -19 -1 -8 3 -5 6 6 6 11 1
17 -2 13 -5z m78 -5 c15 -6 9 -7 -19 -4 -22 3 -42 8 -45 10 -8 9 43 4 64 -6z
m-12 -26 c-7 -2 -19 -2 -25 0 -7 3 -2 5 12 5 14 0 19 -2 13 -5z m7 -29 c0 -2
-12 -4 -27 -4 -21 0 -24 3 -14 9 13 8 41 5 41 -5z m-101 -11 c23 -6 23 -7 5
-14 -17 -7 -17 -8 -1 -8 21 -1 19 -33 -3 -43 -12 -5 -11 -7 3 -7 10 -1 16 -5
13 -10 -6 -9 -136 -4 -146 6 -2 2 -5 22 -6 44 l-1 39 56 0 c31 0 67 -3 80 -7z
m89 -110 c-10 -2 -26 -2 -35 0 -10 3 -2 5 17 5 19 0 27 -2 18 -5z"/>
<path d="M290 780 c0 -5 5 -10 10 -10 6 0 10 5 10 10 0 6 -4 10 -10 10 -5 0
-10 -4 -10 -10z"/>
<path d="M500 1111 c0 -6 4 -13 10 -16 6 -3 7 1 4 9 -7 18 -14 21 -14 7z"/>
<path d="M205 1100 c-4 -6 -11 -7 -17 -4 -7 4 -8 2 -4 -5 6 -9 12 -9 24 1 10
7 19 14 21 15 2 2 -1 3 -7 3 -6 0 -14 -5 -17 -10z"/>
<path d="M530 1090 c0 -5 -8 -10 -19 -10 -10 0 -25 -8 -32 -17 -13 -16 -12
-17 3 -5 15 12 17 11 15 -7 -1 -12 -9 -24 -19 -27 -10 -3 -16 -10 -12 -15 4
-6 13 -4 23 5 19 18 46 22 36 6 -3 -5 -2 -10 3 -10 8 0 22 22 22 34 0 2 -12 2
-26 0 -25 -2 -25 -2 -8 17 12 14 20 16 30 8 9 -8 11 -5 7 10 -5 21 -23 29 -23
11z"/>
<path d="M5 1060 c-3 -6 1 -7 9 -4 18 7 21 14 7 14 -6 0 -13 -4 -16 -10z"/>
<path d="M245 1049 c-4 -6 -4 -13 -1 -16 3 -4 6 -1 6 5 0 6 8 13 18 15 15 4
15 5 0 6 -9 0 -20 -4 -23 -10z"/>
<path d="M2391 1035 c3 -23 -2 -27 -18 -14 -11 10 -14 10 -9 2 4 -8 2 -13 -4
-13 -8 0 -9 -10 -5 -30 8 -36 -6 -39 -29 -7 -9 12 -14 16 -10 8 4 -7 1 -17 -6
-21 -7 -4 -9 -13 -6 -19 4 -6 13 -8 19 -4 9 5 9 3 0 -8 -9 -11 -8 -18 2 -33
14 -18 16 -18 59 8 25 14 48 30 51 35 3 5 19 12 35 16 16 4 32 11 35 16 4 5
-4 5 -18 0 -14 -6 -28 -7 -31 -4 -9 9 -7 25 2 20 4 -3 21 1 37 9 21 10 23 12
6 8 -14 -4 -27 -1 -31 6 -5 9 -13 9 -26 2 -14 -8 -22 -5 -36 12 -10 11 -18 17
-17 11z m9 -41 c0 -2 -7 -4 -15 -4 -8 0 -15 4 -15 10 0 5 7 7 15 4 8 -4 15 -8
15 -10z m-40 -70 c0 -8 -4 -12 -10 -9 -5 3 -10 10 -10 16 0 5 5 9 10 9 6 0 10
-7 10 -16z"/>
<path d="M906 1007 c3 -10 9 -15 12 -12 3 3 0 11 -7 18 -10 9 -11 8 -5 -6z"/>
<path d="M936 965 c4 -8 11 -15 16 -15 6 0 5 6 -2 15 -7 8 -14 15 -16 15 -2 0
-1 -7 2 -15z"/>
<path d="M1330 960 c0 -5 5 -10 11 -10 5 0 7 5 4 10 -3 6 -8 10 -11 10 -2 0
-4 -4 -4 -10z"/>
<path d="M1715 940 c10 -11 20 -20 23 -20 3 0 -3 9 -13 20 -10 11 -20 20 -23
20 -3 0 3 -9 13 -20z"/>
<path d="M1710 891 c0 -6 4 -13 10 -16 6 -3 7 1 4 9 -7 18 -14 21 -14 7z"/>
<path d="M23 790 c4 -14 7 -28 7 -32 0 -5 5 -8 10 -8 16 0 11 36 -7 51 -15 13
-16 11 -10 -11z"/>
<path d="M0 782 c0 -11 4 -23 9 -27 6 -3 8 4 6 16 -6 30 -15 37 -15 11z"/>
<path d="M950 783 c5 -2 8 -9 4 -14 -3 -5 0 -9 6 -9 15 0 7 23 -8 26 -7 1 -8
0 -2 -3z"/>
<path d="M67 768 c7 -8 10 -18 6 -21 -3 -4 1 -7 10 -7 24 0 21 13 -5 29 -20
13 -22 12 -11 -1z"/>
<path d="M3 705 c0 -8 4 -15 9 -15 4 0 8 4 8 9 0 6 -4 12 -8 15 -5 3 -9 -1 -9
-9z"/>
<path d="M2390 710 c0 -5 5 -10 11 -10 5 0 7 5 4 10 -3 6 -8 10 -11 10 -2 0
-4 -4 -4 -10z"/>
<path d="M13 664 c-15 -16 -16 -24 -4 -24 8 0 24 30 19 35 -2 2 -9 -3 -15 -11z"/>
<path d="M1475 639 c-4 -6 -5 -12 -2 -15 2 -3 7 2 10 11 7 17 1 20 -8 4z"/>
<path d="M610 580 c-9 -6 -10 -10 -3 -10 6 0 15 5 18 10 8 12 4 12 -15 0z"/>
<path d="M1580 376 c0 -2 7 -9 15 -16 9 -7 15 -8 15 -2 0 5 -7 12 -15 16 -8 3
-15 4 -15 2z"/>
<path d="M1740 351 c0 -6 4 -12 8 -15 5 -3 9 1 9 9 0 8 -4 15 -9 15 -4 0 -8
-4 -8 -9z"/>
<path d="M1105 340 c3 -5 8 -10 11 -10 2 0 4 5 4 10 0 6 -5 10 -11 10 -5 0 -7
-4 -4 -10z"/>
<path d="M1195 330 c-3 -5 -1 -10 4 -10 6 0 11 5 11 10 0 6 -2 10 -4 10 -3 0
-8 -4 -11 -10z"/>
<path d="M2217 273 c-4 -3 -7 -11 -7 -17 0 -6 5 -5 12 2 6 6 9 14 7 17 -3 3
-9 2 -12 -2z"/>
<path d="M1485 149 c-11 -16 -1 -19 13 -3 7 8 8 14 3 14 -5 0 -13 -5 -16 -11z"/>
<path d="M2462 73 c-27 -59 -29 -68 -15 -72 17 -3 36 22 39 54 1 11 5 35 9 53
4 17 6 32 4 32 -3 0 -19 -30 -37 -67z"/>
<path d="M1456 115 c-9 -26 -7 -32 5 -12 6 10 9 21 6 23 -2 3 -7 -2 -11 -11z"/>
<path d="M1110 110 c0 -5 5 -10 11 -10 5 0 7 5 4 10 -3 6 -8 10 -11 10 -2 0
-4 -4 -4 -10z"/>
<path d="M1740 101 c0 -6 4 -12 8 -15 5 -3 9 1 9 9 0 8 -4 15 -9 15 -4 0 -8
-4 -8 -9z"/>
<path d="M800 73 c0 -13 5 -23 10 -23 13 0 13 11 0 30 -8 12 -10 11 -10 -7z"/>
<path d="M1356 77 c3 -10 9 -15 12 -12 3 3 0 11 -7 18 -10 9 -11 8 -5 -6z"/>
<path d="M2155 10 c-3 -5 -1 -10 4 -10 6 0 11 5 11 10 0 6 -2 10 -4 10 -3 0
-8 -4 -11 -10z"/>
</g>
</svg>
